<?xml version="1.0" encoding="us-ascii" standalone="no"?><svg xmlns="http://www.w3.org/2000/svg" xmlns:xlink="http://www.w3.org/1999/xlink" contentStyleType="text/css" height="450px" preserveAspectRatio="none" style="width:888px;height:450px;background:#FFFFFF;" version="1.1" viewBox="0 0 888 450" width="888px" zoomAndPan="magnify"><defs/><g><!--cluster wip--><g id="cluster_wip"><path d="M8.5,260 L37.5,260 A3.75,3.75 0 0 1 40,262.5 L47,282.2969 L445.5,282.2969 A2.5,2.5 0 0 1 448,284.7969 L448,440.5 A2.5,2.5 0 0 1 445.5,443 L8.5,443 A2.5,2.5 0 0 1 6,440.5 L6,262.5 A2.5,2.5 0 0 1 8.5,260 " fill="none" style="stroke:#000000;stroke-width:1.5;"/><line style="stroke:#000000;stroke-width:1.5;" x1="6" x2="47" y1="282.2969" y2="282.2969"/><text fill="#000000" font-family="sans-serif" font-size="14" font-weight="bold" lengthAdjust="spacing" textLength="28" x="10" y="274.9951">wip</text></g><!--entity test_contractor--><g id="elem_test_contractor"><rect fill="#D2691E" height="36.2969" rx="2.5" ry="2.5" style="stroke:#181818;stroke-width:0.5;" width="160" x="272" y="295"/><text fill="#000000" font-family="sans-serif" font-size="14" lengthAdjust="spacing" textLength="140" x="282" y="317.9951">msh-test-contractor</text></g><!--entity base_frame--><g id="elem_base_frame"><rect fill="#D3D3D3" height="36.2969" rx="2.5" ry="2.5" style="stroke:#181818;stroke-width:0.5;" width="137" x="294.5" y="391"/><text fill="#000000" font-family="sans-serif" font-size="14" lengthAdjust="spacing" textLength="117" x="304.5" y="413.9951">msh-base-frame</text></g><!--entity entity--><g id="elem_entity"><rect fill="#ADD8E6" height="36.2969" rx="2.5" ry="2.5" style="stroke:#181818;stroke-width:0.5;" width="95" x="22.5" y="295"/><text fill="#000000" font-family="sans-serif" font-size="14" lengthAdjust="spacing" textLength="75" x="32.5" y="317.9951">msh-entity</text></g><!--entity orm--><g id="elem_orm"><rect fill="#FFA500" height="36.2969" rx="2.5" ry="2.5" style="stroke:#181818;stroke-width:0.5;" width="84" x="153" y="295"/><text fill="#000000" font-family="sans-serif" font-size="14" lengthAdjust="spacing" textLength="64" x="163" y="317.9951">msh-orm</text></g><!--entity util--><g id="elem_util"><rect fill="#FFD700" height="36.2969" rx="2.5" ry="2.5" style="stroke:#181818;stroke-width:0.5;" width="77" x="621.5" y="7"/><text fill="#000000" font-family="sans-serif" font-size="14" lengthAdjust="spacing" textLength="57" x="631.5" y="29.9951">msh-util</text></g><!--entity node_session--><g id="elem_node_session"><rect fill="#FF00FF" height="36.2969" rx="2.5" ry="2.5" style="stroke:#181818;stroke-width:0.5;" width="148" x="734" y="7"/><text fill="#000000" font-family="sans-serif" font-size="14" lengthAdjust="spacing" textLength="128" x="744" y="29.9951">msh-node-session</text></g><!--entity error--><g id="elem_error"><rect fill="#FFC0CB" height="36.2969" rx="2.5" ry="2.5" style="stroke:#181818;stroke-width:0.5;" width="91" x="207.5" y="199"/><text fill="#000000" font-family="sans-serif" font-size="14" lengthAdjust="spacing" textLength="71" x="217.5" y="221.9951">msh-error</text></g><!--entity logger--><g id="elem_logger"><rect fill="#90EE90" height="36.2969" rx="2.5" ry="2.5" style="stroke:#181818;stroke-width:0.5;" width="101" x="527.5" y="103"/><text fill="#000000" font-family="sans-serif" font-size="14" lengthAdjust="spacing" textLength="81" x="537.5" y="125.9951">msh-logger</text></g><!--entity env--><g id="elem_env"><rect fill="#1E90FF" height="36.2969" rx="2.5" ry="2.5" style="stroke:#181818;stroke-width:0.5;" width="81" x="702.5" y="199"/><text fill="#FFFFFF" font-family="sans-serif" font-size="14" lengthAdjust="spacing" textLength="61" x="712.5" y="221.9951">msh-env</text></g><!--entity app_boot--><g id="elem_app_boot"><rect fill="#00FFFF" height="36.2969" rx="2.5" ry="2.5" style="stroke:#181818;stroke-width:0.5;" width="119" x="405.5" y="199"/><text fill="#000000" font-family="sans-serif" font-size="14" lengthAdjust="spacing" textLength="99" x="415.5" y="221.9951">msh-app-boot</text></g><!--entity cli--><g id="elem_cli"><rect fill="#000000" height="36.2969" rx="2.5" ry="2.5" style="stroke:#181818;stroke-width:0.5;" width="71" x="669.5" y="295"/><text fill="#FFFFFF" font-family="sans-serif" font-size="14" lengthAdjust="spacing" textLength="51" x="679.5" y="317.9951">msh-cli</text></g><!--reverse link app_boot to base_frame--><g id="link_app_boot_base_frame"><path d="M466.2889,241.197 C467.0189,264.367 465.43,300.24 449,331 C435.59,356.1 410.6,377.05 391,390.72 " fill="none" id="app_boot-backto-base_frame" style="stroke:#00FFFF;stroke-width:2.0;"/><polygon fill="#00FFFF" points="466.1,235.2,462.3854,244.3215,466.2575,240.1975,470.3814,244.0696,466.1,235.2" style="stroke:#00FFFF;stroke-width:2.0;"/></g><!--reverse link test_contractor to base_frame--><g id="link_test_contractor_base_frame"><path d="M354.7157,337.1995 C356.6957,354.1595 359.01,373.95 361,390.87 " fill="none" id="test_contractor-backto-base_frame" style="stroke:#D2691E;stroke-width:2.0;"/><polygon fill="#D2691E" points="354.02,331.24,351.0906,340.6431,354.5998,336.2063,359.0366,339.7155,354.02,331.24" style="stroke:#D2691E;stroke-width:2.0;"/></g><!--reverse link util to base_frame--><g id="link_util_base_frame"><path d="M703.3739,45.7385 C729.6439,59.0285 758.58,76.91 782,103 C823.6,149.34 848.49,175.86 829,235 C812.39,285.4 802.87,302.66 758,331 C704.69,364.67 530.18,389.14 431.89,400.64 " fill="none" id="util-backto-base_frame" style="stroke:#FFD700;stroke-width:2.0;"/><polygon fill="#FFD700" points="698.02,43.03,704.2451,50.662,702.4816,45.2871,707.8565,43.5235,698.02,43.03" style="stroke:#FFD700;stroke-width:2.0;"/></g><!--reverse link logger to base_frame--><g id="link_logger_base_frame"><path d="M573.2119,145.0157 C564.5219,183.9157 539.75,273.94 484,331 C459.2,356.38 424.52,377.36 398.64,390.98 " fill="none" id="logger-backto-base_frame" style="stroke:#90EE90;stroke-width:2.0;"/><polygon fill="#90EE90" points="574.52,139.16,568.654,147.0714,573.4299,144.0397,576.4616,148.8156,574.52,139.16" style="stroke:#90EE90;stroke-width:2.0;"/></g><!--reverse link logger to app_boot--><g id="link_logger_app_boot"><path d="M552.9266,142.8562 C532.5666,159.7862 506.13,181.79 485.69,198.79 " fill="none" id="logger-backto-app_boot" style="stroke:#90EE90;stroke-width:2.0;"/><polygon fill="#90EE90" points="557.54,139.02,548.0624,141.6987,553.6955,142.2168,553.1774,147.8499,557.54,139.02" style="stroke:#90EE90;stroke-width:2.0;"/></g><!--link app_boot to test_contractor--><g id="link_app_boot_test_contractor"><path d="M444.54,235.02 C424.18,251.95 397.743,273.9533 377.303,290.9533 " fill="none" id="app_boot-to-test_contractor" style="stroke:#D2691E;stroke-width:2.0;"/><polygon fill="#D2691E" points="372.69,294.79,382.1673,292.1104,376.5342,291.5928,377.0518,285.9597,372.69,294.79" style="stroke:#D2691E;stroke-width:2.0;"/></g><!--reverse link app_boot to cli--><g id="link_app_boot_cli"><path d="M514.0468,237.2081 C560.1068,255.2481 626.41,281.22 669.29,298.01 " fill="none" id="app_boot-backto-cli" style="stroke:#00FFFF;stroke-width:2.0;"/><polygon fill="#00FFFF" points="508.46,235.02,515.3814,242.0267,513.1156,236.8434,518.2989,234.5777,508.46,235.02" style="stroke:#00FFFF;stroke-width:2.0;"/></g><!--reverse link env to cli--><g id="link_env_cli"><path d="M733.7802,240.8022 C726.9202,257.7622 718.77,277.95 711.93,294.87 " fill="none" id="env-backto-cli" style="stroke:#1E90FF;stroke-width:2.0;"/><polygon fill="#1E90FF" points="736.03,235.24,728.9471,242.0835,734.1552,239.8752,736.3634,245.0832,736.03,235.24" style="stroke:#1E90FF;stroke-width:2.0;"/></g><!--reverse link logger to cli--><g id="link_logger_cli"><path d="M592.8246,144.1881 C617.0046,180.3581 669.55,258.96 693.62,294.98 " fill="none" id="logger-backto-cli" style="stroke:#90EE90;stroke-width:2.0;"/><polygon fill="#90EE90" points="589.49,139.2,591.1665,148.9051,592.2688,143.3567,597.8172,144.459,589.49,139.2" style="stroke:#90EE90;stroke-width:2.0;"/></g><!--reverse link util to cli--><g id="link_util_cli"><path d="M686.0442,46.9811 C719.4742,75.2111 777.95,131.33 801,199 C806.16,214.15 807.92,220.57 801,235 C788.24,261.58 761.34,281.88 739.26,294.95 " fill="none" id="util-backto-cli" style="stroke:#FFD700;stroke-width:2.0;"/><polygon fill="#FFD700" points="681.46,43.11,685.7555,51.9728,685.2801,46.3359,690.917,45.8605,681.46,43.11" style="stroke:#FFD700;stroke-width:2.0;"/></g><!--reverse link logger to env--><g id="link_logger_env"><path d="M613.0928,141.991 C642.9028,158.981 683.23,181.95 713.06,198.95 " fill="none" id="logger-backto-env" style="stroke:#90EE90;stroke-width:2.0;"/><polygon fill="#90EE90" points="607.88,139.02,613.7185,146.9517,612.224,141.4958,617.6798,140.0013,607.88,139.02" style="stroke:#90EE90;stroke-width:2.0;"/></g><!--reverse link util to env--><g id="link_util_env"><path d="M669.9118,48.6983 C685.7118,84.8683 719.83,162.96 735.56,198.98 " fill="none" id="util-backto-env" style="stroke:#FFD700;stroke-width:2.0;"/><polygon fill="#FFD700" points="667.51,43.2,667.4472,53.0487,669.5115,47.7819,674.7782,49.8463,667.51,43.2" style="stroke:#FFD700;stroke-width:2.0;"/></g><!--reverse link logger to test_contractor--><g id="link_logger_test_contractor"><path d="M521.3231,131.5425 C478.6031,141.0425 424.64,159.44 388,199 C362.96,226.04 355.33,270.51 353.01,294.82 " fill="none" id="logger-backto-test_contractor" style="stroke:#90EE90;stroke-width:2.0;"/><polygon fill="#90EE90" points="527.18,130.24,517.5263,128.2891,522.2992,131.3254,519.2629,136.0983,527.18,130.24" style="stroke:#90EE90;stroke-width:2.0;"/></g><!--reverse link util to logger--><g id="link_util_logger"><path d="M641.015,47.7607 C626.215,64.7207 607.71,85.95 592.94,102.87 " fill="none" id="util-backto-logger" style="stroke:#FFD700;stroke-width:2.0;"/><polygon fill="#FFD700" points="644.96,43.24,636.0287,47.3911,641.6725,47.0073,642.0563,52.6511,644.96,43.24" style="stroke:#FFD700;stroke-width:2.0;"/></g><!--reverse link util to entity--><g id="link_util_entity"><path d="M615.2629,29.6733 C521.3729,37.8933 290.54,61.72 224,103 C146.44,151.12 95.23,253.88 77.2,294.74 " fill="none" id="util-backto-entity" style="stroke:#FFD700;stroke-width:2.0;"/><polygon fill="#FFD700" points="621.24,29.15,611.9254,25.9502,616.2591,29.5861,612.6232,33.9197,621.24,29.15" style="stroke:#FFD700;stroke-width:2.0;"/></g><!--reverse link util to orm--><g id="link_util_orm"><path d="M615.4215,26.032 C519.5515,28.142 276.55,48.39 170,199 C149.46,228.03 169.27,270.94 183.46,294.65 " fill="none" id="util-backto-orm" style="stroke:#FFD700;stroke-width:2.0;"/><polygon fill="#FFD700" points="621.42,25.9,612.3342,22.099,616.4212,26.01,612.5102,30.0971,621.42,25.9" style="stroke:#FFD700;stroke-width:2.0;"/></g><!--reverse link error to orm--><g id="link_error_orm"><path d="M239.2104,240.3468 C228.7504,257.3068 216.01,277.95 205.57,294.87 " fill="none" id="error-backto-orm" style="stroke:#FFC0CB;stroke-width:2.0;"/><polygon fill="#FFC0CB" points="242.36,235.24,234.231,240.8005,239.7353,239.4957,241.0401,245,242.36,235.24" style="stroke:#FFC0CB;stroke-width:2.0;"/></g><!--reverse link logger to orm--><g id="link_logger_orm"><path d="M521.4603,124.7011 C426.2703,130.2811 232.16,147.65 190,199 C167.69,226.17 179.03,270.59 187.86,294.85 " fill="none" id="logger-backto-orm" style="stroke:#90EE90;stroke-width:2.0;"/><polygon fill="#90EE90" points="527.45,124.35,518.2313,120.8835,522.4586,124.6426,518.6995,128.8698,527.45,124.35" style="stroke:#90EE90;stroke-width:2.0;"/></g><!--SRC=[bLJBJiCm4BplLvY2n2b2uiZhW3Z2ZNlbfjl4gcj7jjjI8VwTjHFir4uBz19hTsQycTdcmRg3n2VWnkWz-mJ6NeN2zrRKQuNMibluWeUR0NHjrq9rtF0DiorVwhrG3LjnQH40BgwsJiXvhQKsx94rMYwfflGIvvQKX5QnzyORL8vJ6-bQ4-kTK6igIjqqcAfIDArh3ABo1BMBZHUz9Dopt28rUDVD5rgxsAqFt1DgAM9f8NczXg3YX3iStx3eTRJPnBesN3M-wD1wOUKChzreuBhLTEJEOnRSudn5tc0-EJy06AmTYKbaiurjAs_LZ77B_85TZgpBaTx0QZ0mCCQE4hCqE5S87WTgE15dv7eExhqFwFv8y74UXRZQzT9gvuL_qhbt-E7kzgqWQp861LNve0Bj9pNY7WUOioZ6GA0dOMEeutjWHIj70-z5HujCcvn9-12h56AGou8bwSceIp6VTXNI3ZefV9B8Ds5Ybdu11-VyCPYNbh9aq5u6E3q96xUK_fxNrT4FO3HCjUsgfpCk5z2_6b8GoqKk8DCB1H37EmTB8Fhkg7zC2k1tvZSZ4YRRv55dUh3KBoq0y6hdsAa_nSxVyQoFG_cash1efs_pgtMgctfJ7v7KFPNnDm00]--></g></svg>