<?xml version="1.0" encoding="UTF-8" standalone="no"?><svg xmlns="http://www.w3.org/2000/svg" xmlns:xlink="http://www.w3.org/1999/xlink" contentScriptType="application/ecmascript" contentStyleType="text/css" height="343px" preserveAspectRatio="none" style="width:682px;height:343px;background:#FFFFFF;" version="1.1" viewBox="0 0 682 343" width="682px" zoomAndPan="magnify"><defs><filter height="300%" id="f1vmir36l8lwkv" width="300%" x="-1" y="-1"><feGaussianBlur result="blurOut" stdDeviation="2.0"/><feColorMatrix in="blurOut" result="blurOut2" type="matrix" values="0 0 0 0 0 0 0 0 0 0 0 0 0 0 0 0 0 0 .4 0"/><feOffset dx="4.0" dy="4.0" in="blurOut2" result="blurOut3"/><feBlend in="SourceGraphic" in2="blurOut3" mode="normal"/></filter></defs><g><!--MD5=[ee1136c2fea667c858da6db18ea920f9]
entity node_error--><rect fill="#FFC0CB" filter="url(#f1vmir36l8lwkv)" height="36.2969" style="stroke:#A80036;stroke-width:1.0;" width="132" x="202" y="103"/><text fill="#000000" font-family="sans-serif" font-size="14" lengthAdjust="spacing" textLength="112" x="212" y="125.9951">msh-node-error</text><!--MD5=[dc761494ee1b9b4244e1fb624f515d0f]
entity node_session--><rect fill="#FF00FF" filter="url(#f1vmir36l8lwkv)" height="36.2969" style="stroke:#A80036;stroke-width:1.0;" width="148" x="522" y="7"/><text fill="#000000" font-family="sans-serif" font-size="14" lengthAdjust="spacing" textLength="128" x="532" y="29.9951">msh-node-session</text><!--MD5=[54df67121562196fffa2352ae78be17e]
entity node_util--><rect fill="#FFD700" filter="url(#f1vmir36l8lwkv)" height="36.2969" style="stroke:#A80036;stroke-width:1.0;" width="118" x="137" y="199"/><text fill="#000000" font-family="sans-serif" font-size="14" lengthAdjust="spacing" textLength="98" x="147" y="221.9951">msh-node-util</text><!--MD5=[a937e882fe30e40f6612a11c0a4df80e]
entity node_log--><rect fill="#90EE90" filter="url(#f1vmir36l8lwkv)" height="36.2969" style="stroke:#A80036;stroke-width:1.0;" width="118" x="369" y="7"/><text fill="#000000" font-family="sans-serif" font-size="14" lengthAdjust="spacing" textLength="98" x="379" y="29.9951">msh-node-log</text><!--MD5=[528e974334f1ea53c49b315589e37ed7]
entity node_app--><rect fill="#00FFFF" filter="url(#f1vmir36l8lwkv)" height="36.2969" style="stroke:#A80036;stroke-width:1.0;" width="123" x="290.5" y="199"/><text fill="#000000" font-family="sans-serif" font-size="14" lengthAdjust="spacing" textLength="103" x="300.5" y="221.9951">msh-node-app</text><!--MD5=[b9c22c1389906d5c5d843de05ade5a78]
entity test_contractor--><rect fill="#D2691E" filter="url(#f1vmir36l8lwkv)" height="36.2969" style="stroke:#A80036;stroke-width:1.0;" width="160" x="7" y="103"/><text fill="#000000" font-family="sans-serif" font-size="14" lengthAdjust="spacing" textLength="140" x="17" y="125.9951">msh-test-contractor</text><!--MD5=[5aad52933b20a115e99239acc3f6ddb1]
entity node_env--><rect fill="#1E90FF" filter="url(#f1vmir36l8lwkv)" height="36.2969" style="stroke:#A80036;stroke-width:1.0;" width="122" x="520" y="199"/><text fill="#FFFFFF" font-family="sans-serif" font-size="14" lengthAdjust="spacing" textLength="102" x="530" y="221.9951">msh-node-env</text><!--MD5=[893e59ef80d0d7ffc68896a5e14db9fb]
entity base_frame--><rect fill="#D3D3D3" filter="url(#f1vmir36l8lwkv)" height="36.2969" style="stroke:#A80036;stroke-width:1.0;" width="137" x="127.5" y="295"/><text fill="#000000" font-family="sans-serif" font-size="14" lengthAdjust="spacing" textLength="117" x="137.5" y="317.9951">msh-base-frame</text><!--MD5=[c251b62818238b6f79269adc5bf7d1e2]
entity cli--><rect fill="#000000" filter="url(#f1vmir36l8lwkv)" height="36.2969" style="stroke:#A80036;stroke-width:1.0;" width="71" x="517.5" y="295"/><text fill="#FFFFFF" font-family="sans-serif" font-size="14" lengthAdjust="spacing" textLength="51" x="527.5" y="317.9951">msh-cli</text><!--MD5=[9408c6bf5129b5837c7d0a66c91047f1]
entity vision--><rect fill="#FFA500" filter="url(#f1vmir36l8lwkv)" height="36.2969" style="stroke:#A80036;stroke-width:1.0;" width="96" x="331" y="295"/><text fill="#000000" font-family="sans-serif" font-size="14" lengthAdjust="spacing" textLength="76" x="341" y="317.9951">msh-vision</text><!--MD5=[8b8265dfffc2fdcf005ec848823c3abb]
reverse link node_app to vision--><path d="M358.38,240.23 C363.19,256.95 369.67,279.53 374.08,294.87 " fill="none" id="node_app-backto-vision" style="stroke:#00FFFF;stroke-width:2.0;"/><polygon fill="#00FFFF" points="356.95,235.24,355.6032,244.9963,358.3368,240.0438,363.2893,242.7774,356.95,235.24" style="stroke:#00FFFF;stroke-width:2.0;"/><!--MD5=[0700c1bdae0325f7174be48b221851dd]
reverse link node_env to vision--><path d="M539.61,237.26 C503.17,254.22 450.6,278.68 415.65,294.95 " fill="none" id="node_env-backto-vision" style="stroke:#1E90FF;stroke-width:2.0;"/><polygon fill="#1E90FF" points="544.42,235.02,534.5724,235.1774,539.884,237.1235,537.9379,242.435,544.42,235.02" style="stroke:#1E90FF;stroke-width:2.0;"/><!--MD5=[421b48379afd5c15e1738fa5aa14cbcd]
reverse link node_util to vision--><path d="M233.9,237.47 C266.9,254.42 314.26,278.75 345.8,294.95 " fill="none" id="node_util-backto-vision" style="stroke:#FFD700;stroke-width:2.0;"/><polygon fill="#FFD700" points="229.14,235.02,235.3131,242.6942,233.5861,237.3074,238.9729,235.5804,229.14,235.02" style="stroke:#FFD700;stroke-width:2.0;"/><!--MD5=[b798392f87e4a3b3b15584a68a1f559e]
reverse link node_log to vision--><path d="M432.63,47.97 C439.87,86.74 451.07,169.41 431,235 C423.97,257.98 407.5,280.3 394.97,294.93 " fill="none" id="node_log-backto-vision" style="stroke:#90EE90;stroke-width:2.0;"/><polygon fill="#90EE90" points="431.68,43.02,429.4526,52.6137,432.6248,47.9299,437.3085,51.1021,431.68,43.02" style="stroke:#90EE90;stroke-width:2.0;"/><!--MD5=[9a0f982d118d04df248efa98f9a8525d]
reverse link node_app to base_frame--><path d="M319.34,237.68 C291.23,254.62 251.07,278.81 224.3,294.95 " fill="none" id="node_app-backto-base_frame" style="stroke:#00FFFF;stroke-width:2.0;"/><polygon fill="#00FFFF" points="323.75,235.02,313.9775,236.2444,319.4688,237.603,318.1103,243.0943,323.75,235.02" style="stroke:#00FFFF;stroke-width:2.0;"/><!--MD5=[d18bb5b8b3147562fd308e3971802be0]
reverse link node_util to base_frame--><path d="M196,240.66 C196,257.34 196,279.66 196,294.87 " fill="none" id="node_util-backto-base_frame" style="stroke:#FFD700;stroke-width:2.0;"/><polygon fill="#FFD700" points="196,235.24,192,244.24,196,240.24,200,244.24,196,235.24" style="stroke:#FFD700;stroke-width:2.0;"/><!--MD5=[18d9e756ee8c530163794b388a18b37d]
reverse link test_contractor to base_frame--><path d="M89.9,144.28 C93.74,168.07 102.11,206.23 119,235 C132.97,258.81 156.05,280.5 173.31,294.75 " fill="none" id="test_contractor-backto-base_frame" style="stroke:#D2691E;stroke-width:2.0;"/><polygon fill="#D2691E" points="89.1,139.14,86.5357,148.6492,89.871,144.0802,94.44,147.4155,89.1,139.14" style="stroke:#D2691E;stroke-width:2.0;"/><!--MD5=[860c5d061bcab264f96d921baa155752]
reverse link node_log to node_app--><path d="M419.15,48.11 C403.81,86.47 372.6,164.51 358.81,198.98 " fill="none" id="node_log-backto-node_app" style="stroke:#90EE90;stroke-width:2.0;"/><polygon fill="#90EE90" points="421.12,43.2,414.0636,50.0707,419.263,47.8424,421.4914,53.0419,421.12,43.2" style="stroke:#90EE90;stroke-width:2.0;"/><!--MD5=[cfb0aa061ae35c8c3e81af622c39f0ee]
reverse link test_contractor to node_app--><path d="M139.84,140.74 C187.7,157.72 257.6,182.52 303.92,198.95 " fill="none" id="test_contractor-backto-node_app" style="stroke:#D2691E;stroke-width:2.0;"/><polygon fill="#D2691E" points="134.99,139.02,142.136,145.7975,139.7026,140.6908,144.8093,138.2574,134.99,139.02" style="stroke:#D2691E;stroke-width:2.0;"/><!--MD5=[c1c883930f1a801d3a88bdc384345635]
reverse link node_app to cli--><path d="M393.21,237.27 C429.71,254.34 482.45,279 517.21,295.26 " fill="none" id="node_app-backto-cli" style="stroke:#00FFFF;stroke-width:2.0;"/><polygon fill="#00FFFF" points="388.4,235.02,394.8628,242.4518,392.9306,237.1352,398.2472,235.2029,388.4,235.02" style="stroke:#00FFFF;stroke-width:2.0;"/><!--MD5=[9c7fc7b123386b90749a7d5b5cdb2abd]
reverse link node_env to cli--><path d="M574.38,240.23 C569.4,256.95 562.67,279.53 558.1,294.87 " fill="none" id="node_env-backto-cli" style="stroke:#1E90FF;stroke-width:2.0;"/><polygon fill="#1E90FF" points="575.86,235.24,569.4528,242.7198,574.4298,240.0311,577.1186,245.0081,575.86,235.24" style="stroke:#1E90FF;stroke-width:2.0;"/><!--MD5=[cf51d2c8ff4a078456be2523d4207e92]
reverse link node_log to node_env--><path d="M446.48,47.43 C459.62,62.78 477.59,84 493,103 C520.25,136.6 551.11,176.73 568.09,198.99 " fill="none" id="node_log-backto-node_env" style="stroke:#90EE90;stroke-width:2.0;"/><polygon fill="#90EE90" points="442.91,43.27,445.7272,52.7074,446.1628,47.0673,451.8028,47.5029,442.91,43.27" style="stroke:#90EE90;stroke-width:2.0;"/><!--MD5=[0d0a0e7bd68d085df5ab3ad3aad2bfa8]
reverse link node_log to test_contractor--><path d="M363.86,43.68 C302.19,60.68 209.6,86.21 148.74,102.98 " fill="none" id="node_log-backto-test_contractor" style="stroke:#90EE90;stroke-width:2.0;"/><polygon fill="#90EE90" points="368.99,42.27,359.2502,40.8083,364.1702,43.6001,361.3784,48.5201,368.99,42.27" style="stroke:#90EE90;stroke-width:2.0;"/><!--MD5=[62bbe52dff9b8b54d85f2f2f62989f8b]
reverse link node_error to node_util--><path d="M251.63,143.37 C238.76,160.17 221.07,183.27 209.12,198.87 " fill="none" id="node_error-backto-node_util" style="stroke:#FFC0CB;stroke-width:2.0;"/><polygon fill="#FFC0CB" points="254.79,139.24,246.1518,143.971,251.7581,143.2158,252.5132,148.8221,254.79,139.24" style="stroke:#FFC0CB;stroke-width:2.0;"/><!--MD5=[fa180530aaca6a0312501dd8ec72e36e]
@startuml
<style>
arrow {
  LineThickness 2
}
</style>
'skinparam shadowing false


!$node_error_color = pink
!$node_session_color = Magenta
!$node_util_color = gold
!$node_log_color = lightgreen
!$node_app_color = cyan
!$test_contractor_color = chocolate
!$node_env_color = DodgerBlue
!$base_frame_color = lightgray
!$cli_color = black
!$vision_color = orange


rectangle "msh-node-error" as node_error #$node_error_color

rectangle "msh-node-session" as node_session #$node_session_color
rectangle "msh-node-util" as node_util #$node_util_color
rectangle "msh-node-log" as node_log #$node_log_color

rectangle "msh-node-app" as node_app #$node_app_color
rectangle "msh-test-contractor" as test_contractor #$test_contractor_color
rectangle "msh-node-env" as node_env #$node_env_color;text:white

rectangle "msh-base-frame" as base_frame #$base_frame_color
rectangle "msh-cli" as cli #$cli_color;text:white
rectangle "msh-vision" as vision #$vision_color

'- - - - - - - - - - - - - -

vision -up-> node_app #$node_app_color
vision -up-> node_env #$node_env_color
vision -up-> node_util #$node_util_color
vision -up-> node_log #$node_log_color


base_frame -up-> node_app #$node_app_color
base_frame -up-> node_util #$node_util_color
base_frame -up-> test_contractor #$test_contractor_color


node_app -up-> node_log #$node_log_color
node_app -up-> test_contractor #$test_contractor_color


cli -up-> node_app #$node_app_color
cli -up-> node_env #$node_env_color


node_env -up-> node_log #$node_log_color


test_contractor -up-> node_log #$node_log_color


node_util -up-> node_error #$node_error_color

@enduml

@startuml
<style>
arrow {
  LineThickness 2
}
</style>




rectangle "msh-node-error" as node_error #pink

rectangle "msh-node-session" as node_session #Magenta
rectangle "msh-node-util" as node_util #gold
rectangle "msh-node-log" as node_log #lightgreen

rectangle "msh-node-app" as node_app #cyan
rectangle "msh-test-contractor" as test_contractor #chocolate
rectangle "msh-node-env" as node_env #DodgerBlue;text:white

rectangle "msh-base-frame" as base_frame #lightgray
rectangle "msh-cli" as cli #black;text:white
rectangle "msh-vision" as vision #orange


vision -up-> node_app #cyan
vision -up-> node_env #DodgerBlue
vision -up-> node_util #gold
vision -up-> node_log #lightgreen


base_frame -up-> node_app #cyan
base_frame -up-> node_util #gold
base_frame -up-> test_contractor #chocolate


node_app -up-> node_log #lightgreen
node_app -up-> test_contractor #chocolate


cli -up-> node_app #cyan
cli -up-> node_env #DodgerBlue


node_env -up-> node_log #lightgreen


test_contractor -up-> node_log #lightgreen


node_util -up-> node_error #pink

@enduml

PlantUML version 1.2021.11(Sat Oct 02 15:26:11 CEST 2021)
(GPL source distribution)
Java Runtime: OpenJDK Runtime Environment
JVM: OpenJDK 64-Bit Server VM
Default Encoding: UTF-8
Language: en
Country: US
--></g></svg>