<?xml version="1.0" encoding="us-ascii" standalone="no"?><svg xmlns="http://www.w3.org/2000/svg" xmlns:xlink="http://www.w3.org/1999/xlink" contentStyleType="text/css" height="484px" preserveAspectRatio="none" style="width:932px;height:484px;background:#FFFFFF;" version="1.1" viewBox="0 0 932 484" width="932px" zoomAndPan="magnify"><defs/><g><!--entity error--><g id="elem_error"><rect fill="#FFC0CB" height="52.5938" rx="2.5" ry="2.5" style="stroke:#181818;stroke-width:0.5;" width="159" x="583.92" y="7"/><text fill="#000000" font-family="sans-serif" font-size="14" lengthAdjust="spacing" textLength="71" x="593.92" y="29.9951">msh-error</text><text fill="#000000" font-family="sans-serif" font-size="14" lengthAdjust="spacing" textLength="139" x="593.92" y="46.292">old:msh-node-error</text></g><!--entity node_session--><g id="elem_node_session"><rect fill="#FF00FF" height="36.2969" rx="2.5" ry="2.5" style="stroke:#181818;stroke-width:0.5;" width="148" x="778.42" y="15.5"/><text fill="#000000" font-family="sans-serif" font-size="14" lengthAdjust="spacing" textLength="128" x="788.42" y="38.4951">msh-node-session</text></g><!--entity util--><g id="elem_util"><rect fill="#FFD700" height="52.5938" rx="2.5" ry="2.5" style="stroke:#181818;stroke-width:0.5;" width="145" x="403.92" y="7"/><text fill="#000000" font-family="sans-serif" font-size="14" lengthAdjust="spacing" textLength="57" x="413.92" y="29.9951">msh-util</text><text fill="#000000" font-family="sans-serif" font-size="14" lengthAdjust="spacing" textLength="125" x="413.92" y="46.292">old:msh-node-util</text></g><!--entity logger--><g id="elem_logger"><rect fill="#90EE90" height="52.5938" rx="2.5" ry="2.5" style="stroke:#181818;stroke-width:0.5;" width="145" x="276.92" y="120"/><text fill="#000000" font-family="sans-serif" font-size="14" lengthAdjust="spacing" textLength="81" x="286.92" y="142.9951">msh-logger</text><text fill="#000000" font-family="sans-serif" font-size="14" lengthAdjust="spacing" textLength="125" x="286.92" y="159.292">old:msh-node-log</text></g><!--entity app_boot--><g id="elem_app_boot"><rect fill="#00FFFF" height="52.5938" rx="2.5" ry="2.5" style="stroke:#181818;stroke-width:0.5;" width="150" x="146.42" y="329"/><text fill="#000000" font-family="sans-serif" font-size="14" lengthAdjust="spacing" textLength="103" x="156.42" y="351.9951">msh-app-boop</text><text fill="#000000" font-family="sans-serif" font-size="14" lengthAdjust="spacing" textLength="130" x="156.42" y="368.292">old:msh-node-app</text></g><!--entity test_contractor--><g id="elem_test_contractor"><rect fill="#D2691E" height="36.2969" rx="2.5" ry="2.5" style="stroke:#181818;stroke-width:0.5;" width="160" x="65.42" y="233"/><text fill="#000000" font-family="sans-serif" font-size="14" lengthAdjust="spacing" textLength="140" x="75.42" y="255.9951">msh-test-contractor</text></g><!--entity env--><g id="elem_env"><rect fill="#1E90FF" height="52.5938" rx="2.5" ry="2.5" style="stroke:#181818;stroke-width:0.5;" width="149" x="401.92" y="329"/><text fill="#FFFFFF" font-family="sans-serif" font-size="14" lengthAdjust="spacing" textLength="61" x="411.92" y="351.9951">msh-env</text><text fill="#FFFFFF" font-family="sans-serif" font-size="14" lengthAdjust="spacing" textLength="129" x="411.92" y="368.292">old:msh-node-env</text></g><!--entity base_frame--><g id="elem_base_frame"><rect fill="#D3D3D3" height="36.2969" rx="2.5" ry="2.5" style="stroke:#181818;stroke-width:0.5;" width="137" x="24.92" y="442"/><text fill="#000000" font-family="sans-serif" font-size="14" lengthAdjust="spacing" textLength="117" x="34.92" y="464.9951">msh-base-frame</text></g><!--entity cli--><g id="elem_cli"><rect fill="#000000" height="36.2969" rx="2.5" ry="2.5" style="stroke:#181818;stroke-width:0.5;" width="71" x="376.92" y="442"/><text fill="#FFFFFF" font-family="sans-serif" font-size="14" lengthAdjust="spacing" textLength="51" x="386.92" y="464.9951">msh-cli</text></g><!--entity entity--><g id="elem_entity"><rect fill="#F1F1F1" height="36.2969" rx="2.5" ry="2.5" style="stroke:#181818;stroke-width:0.5;" width="95" x="656.92" y="128.5"/><text fill="#000000" font-family="sans-serif" font-size="14" lengthAdjust="spacing" textLength="75" x="666.92" y="151.4951">msh-entity</text></g><!--reverse link app_boot to base_frame--><g id="link_app_boot_base_frame"><path d="M185.29,385.43 C162.62,403.59 134.15,426.38 114.97,441.75 " fill="none" id="app_boot-backto-base_frame" style="stroke:#00FFFF;stroke-width:2.0;"/><polygon fill="#00FFFF" points="189.45,382.1,179.9268,384.6115,185.5498,385.2287,184.9327,390.8518,189.45,382.1" style="stroke:#00FFFF;stroke-width:2.0;"/></g><!--reverse link test_contractor to base_frame--><g id="link_test_contractor_base_frame"><path d="M139.8,274.37 C129.34,316.03 107.08,404.62 97.72,441.9 " fill="none" id="test_contractor-backto-base_frame" style="stroke:#D2691E;stroke-width:2.0;"/><polygon fill="#D2691E" points="141.08,269.29,135.0112,277.0469,139.864,274.1399,142.771,278.9926,141.08,269.29" style="stroke:#D2691E;stroke-width:2.0;"/></g><!--reverse link util to base_frame--><g id="link_util_base_frame"><path d="M398.75,44.25 C296.7,61.76 121.76,109.14 47.42,233 C6,302.01 57.98,401.97 82.23,441.74 " fill="none" id="util-backto-base_frame" style="stroke:#FFD700;stroke-width:2.0;"/><polygon fill="#FFD700" points="403.85,43.39,394.3114,40.9375,398.9192,44.2189,395.6377,48.8267,403.85,43.39" style="stroke:#FFD700;stroke-width:2.0;"/></g><!--reverse link logger to app_boot--><g id="link_logger_app_boot"><path d="M330.79,177.62 C305.6,218.36 261.1,290.33 237.37,328.7 " fill="none" id="logger-backto-app_boot" style="stroke:#90EE90;stroke-width:2.0;"/><polygon fill="#90EE90" points="333.47,173.3,325.3382,178.8564,330.8431,177.5544,332.1452,183.0593,333.47,173.3" style="stroke:#90EE90;stroke-width:2.0;"/></g><!--reverse link test_contractor to app_boot--><g id="link_test_contractor_app_boot"><path d="M161.56,273.77 C173.53,289.91 189.88,311.96 202.47,328.94 " fill="none" id="test_contractor-backto-app_boot" style="stroke:#D2691E;stroke-width:2.0;"/><polygon fill="#D2691E" points="158.31,269.39,160.4553,279.0024,161.2872,273.407,166.8825,274.2389,158.31,269.39" style="stroke:#D2691E;stroke-width:2.0;"/></g><!--reverse link app_boot to cli--><g id="link_app_boot_cli"><path d="M273.67,384.54 C307.87,402.89 351.45,426.28 380.56,441.9 " fill="none" id="app_boot-backto-cli" style="stroke:#00FFFF;stroke-width:2.0;"/><polygon fill="#00FFFF" points="269.12,382.1,275.1554,389.883,273.5246,384.4662,278.9414,382.8355,269.12,382.1" style="stroke:#00FFFF;stroke-width:2.0;"/></g><!--reverse link env to cli--><g id="link_env_cli"><path d="M457.65,386.57 C446.43,404.53 432.59,426.7 423.19,441.75 " fill="none" id="env-backto-cli" style="stroke:#1E90FF;stroke-width:2.0;"/><polygon fill="#1E90FF" points="460.44,382.1,452.273,387.6046,457.7862,386.3376,459.0532,391.8507,460.44,382.1" style="stroke:#1E90FF;stroke-width:2.0;"/></g><!--reverse link logger to cli--><g id="link_logger_cli"><path d="M352.02,178.2 C356.29,223.37 366.19,310.16 384.42,382 C389.77,403.1 398.73,426.48 405.07,441.88 " fill="none" id="logger-backto-cli" style="stroke:#90EE90;stroke-width:2.0;"/><polygon fill="#90EE90" points="351.55,173.16,348.3885,182.4876,352.0065,178.1391,356.3551,181.7572,351.55,173.16" style="stroke:#90EE90;stroke-width:2.0;"/></g><!--reverse link util to cli--><g id="link_util_cli"><path d="M498.99,64.47 C543.61,127.69 633.41,277.44 568.42,382 C542.27,424.07 485.6,443.84 448.25,452.61 " fill="none" id="util-backto-cli" style="stroke:#FFD700;stroke-width:2.0;"/><polygon fill="#FFD700" points="495.86,60.07,497.8234,69.7212,498.7608,64.1425,504.3394,65.0799,495.86,60.07" style="stroke:#FFD700;stroke-width:2.0;"/></g><!--reverse link logger to env--><g id="link_logger_env"><path d="M367.9,177.62 C392.9,218.36 437.05,290.33 460.59,328.7 " fill="none" id="logger-backto-env" style="stroke:#90EE90;stroke-width:2.0;"/><polygon fill="#90EE90" points="365.25,173.3,366.5748,183.0593,367.8769,177.5544,373.3818,178.8564,365.25,173.3" style="stroke:#90EE90;stroke-width:2.0;"/></g><!--reverse link logger to test_contractor--><g id="link_logger_test_contractor"><path d="M293.61,175.54 C257.08,193.89 210.53,217.28 179.45,232.9 " fill="none" id="logger-backto-test_contractor" style="stroke:#90EE90;stroke-width:2.0;"/><polygon fill="#90EE90" points="298.47,173.1,288.6331,173.5849,294.0065,175.3532,292.2381,180.7265,298.47,173.1" style="stroke:#90EE90;stroke-width:2.0;"/></g><!--reverse link util to logger--><g id="link_util_logger"><path d="M443.04,63.67 C423.07,81.13 397.92,103.11 378.72,119.89 " fill="none" id="util-backto-logger" style="stroke:#90EE90;stroke-width:2.0;"/><polygon fill="#90EE90" points="446.96,60.24,437.552,63.1537,443.1962,63.5315,442.8184,69.1757,446.96,60.24" style="stroke:#90EE90;stroke-width:2.0;"/></g><!--reverse link util to entity--><g id="link_util_entity"><path d="M533.62,62.35 C576.33,83.14 633.32,110.89 669.45,128.48 " fill="none" id="util-backto-entity" style="stroke:#181818;stroke-width:2.0;"/><polygon fill="#181818" points="529.01,60.11,535.3386,67.6564,533.5019,62.3061,538.8523,60.4694,529.01,60.11" style="stroke:#181818;stroke-width:2.0;"/></g><!--SRC=[ZLFBJiCm4BplLvY2r5E4nB6K7X17k754YjnacrXnxIXsKoB4lxDsqZoSgBINkhCxiu_PRerj9Ew0LvK-inzWx5qe_Cn5KYWqXZt1BsmVkwIrAOGgUSMFpEGyrMUXCdRWqY00t3qWQLHnegMks0ihXIe8L3h5s92KqAgFVV0CbUKKFbaXUpZJCYLCwYp3GKYABBTPXQWeniiotcjj-sZIS8TRD0vJjkA97NMHv9gUtABhJzKz_gPJgl4gJowmvmRZ0us5OL7UK3YHeiVtaYS5G8M9vIgJo5P7aqT-yYz5xM_SJpTpYwqODyo_sFruFpC5J-dMv4dZlH5tliPGmMqoQC51NimzI6HOTaXkLnxG2VJiDaZyiJ6p2SYPY9mf0n62lSZ5E9APUXZgE2UZmKbF3jmbZKM_PxQeEZH5rQqbgdQ6N0xYsUAttPnpGNSIYhZZYFnnUEPmAoGG7ax8fSln9FgcxFwEhfMZ_uMmJTUaUmAieya7ODH3T2gZtPNbpb9lNUMCEByXWBvkcx9yA47IhGq0kAtzDz-G4rWwYYotDSIN9dDgrzW0uHnNipjuKc-QqPezoe0_]--></g></svg>