<?xml version="1.0" encoding="us-ascii" standalone="no"?><svg xmlns="http://www.w3.org/2000/svg" xmlns:xlink="http://www.w3.org/1999/xlink" contentStyleType="text/css" height="388px" preserveAspectRatio="none" style="width:632px;height:388px;background:#FFFFFF;" version="1.1" viewBox="0 0 632 388" width="632px" zoomAndPan="magnify"><defs/><g><!--entity node_error--><g id="elem_node_error"><rect fill="#FFC0CB" height="52.5938" rx="2.5" ry="2.5" style="stroke:#181818;stroke-width:0.5;" width="159" x="200.53" y="120"/><text fill="#000000" font-family="sans-serif" font-size="14" lengthAdjust="spacing" textLength="71" x="210.53" y="142.9951">msh-error</text><text fill="#000000" font-family="sans-serif" font-size="14" lengthAdjust="spacing" textLength="139" x="210.53" y="159.292">old:msh-node-error</text></g><!--entity node_session--><g id="elem_node_session"><rect fill="#FF00FF" height="36.2969" rx="2.5" ry="2.5" style="stroke:#181818;stroke-width:0.5;" width="148" x="364.03" y="15.5"/><text fill="#000000" font-family="sans-serif" font-size="14" lengthAdjust="spacing" textLength="128" x="374.03" y="38.4951">msh-node-session</text></g><!--entity node_util--><g id="elem_node_util"><rect fill="#FFD700" height="52.5938" rx="2.5" ry="2.5" style="stroke:#181818;stroke-width:0.5;" width="145" x="220.53" y="233"/><text fill="#000000" font-family="sans-serif" font-size="14" lengthAdjust="spacing" textLength="57" x="230.53" y="255.9951">msh-util</text><text fill="#000000" font-family="sans-serif" font-size="14" lengthAdjust="spacing" textLength="125" x="230.53" y="272.292">old:msh-node-util</text></g><!--entity node_log--><g id="elem_node_log"><rect fill="#90EE90" height="52.5938" rx="2.5" ry="2.5" style="stroke:#181818;stroke-width:0.5;" width="145" x="183.53" y="7"/><text fill="#000000" font-family="sans-serif" font-size="14" lengthAdjust="spacing" textLength="81" x="193.53" y="29.9951">msh-logger</text><text fill="#000000" font-family="sans-serif" font-size="14" lengthAdjust="spacing" textLength="125" x="193.53" y="46.292">old:msh-node-log</text></g><!--entity node_app--><g id="elem_node_app"><rect fill="#00FFFF" height="36.2969" rx="2.5" ry="2.5" style="stroke:#181818;stroke-width:0.5;" width="123" x="400.53" y="241.5"/><text fill="#000000" font-family="sans-serif" font-size="14" lengthAdjust="spacing" textLength="103" x="410.53" y="264.4951">msh-node-app</text></g><!--entity test_contractor--><g id="elem_test_contractor"><rect fill="#D2691E" height="36.2969" rx="2.5" ry="2.5" style="stroke:#181818;stroke-width:0.5;" width="160" x="466.03" y="128.5"/><text fill="#000000" font-family="sans-serif" font-size="14" lengthAdjust="spacing" textLength="140" x="476.03" y="151.4951">msh-test-contractor</text></g><!--entity node_env--><g id="elem_node_env"><rect fill="#1E90FF" height="52.5938" rx="2.5" ry="2.5" style="stroke:#181818;stroke-width:0.5;" width="149" x="36.53" y="233"/><text fill="#FFFFFF" font-family="sans-serif" font-size="14" lengthAdjust="spacing" textLength="61" x="46.53" y="255.9951">msh-env</text><text fill="#FFFFFF" font-family="sans-serif" font-size="14" lengthAdjust="spacing" textLength="129" x="46.53" y="272.292">old:msh-node-env</text></g><!--entity base_frame--><g id="elem_base_frame"><rect fill="#D3D3D3" height="36.2969" rx="2.5" ry="2.5" style="stroke:#181818;stroke-width:0.5;" width="137" x="393.53" y="346"/><text fill="#000000" font-family="sans-serif" font-size="14" lengthAdjust="spacing" textLength="117" x="403.53" y="368.9951">msh-base-frame</text></g><!--entity cli--><g id="elem_cli"><rect fill="#000000" height="36.2969" rx="2.5" ry="2.5" style="stroke:#181818;stroke-width:0.5;" width="71" x="166.53" y="346"/><text fill="#FFFFFF" font-family="sans-serif" font-size="14" lengthAdjust="spacing" textLength="51" x="176.53" y="368.9951">msh-cli</text></g><!--reverse link node_app to base_frame--><g id="link_node_app_base_frame"><path d="M462.03,283.01 C462.03,301.95 462.03,328.63 462.03,345.87 " fill="none" id="node_app-backto-base_frame" style="stroke:#00FFFF;stroke-width:2.0;"/><polygon fill="#00FFFF" points="462.03,277.89,458.03,286.89,462.03,282.89,466.03,286.89,462.03,277.89" style="stroke:#00FFFF;stroke-width:2.0;"/></g><!--reverse link node_util to base_frame--><g id="link_node_util_base_frame"><path d="M339.64,288.77 C369.84,307.09 408.19,330.35 433.84,345.9 " fill="none" id="node_util-backto-base_frame" style="stroke:#FFD700;stroke-width:2.0;"/><polygon fill="#FFD700" points="335.24,286.1,340.8678,294.1826,339.5173,288.6893,345.0106,287.3389,335.24,286.1" style="stroke:#FFD700;stroke-width:2.0;"/></g><!--reverse link test_contractor to base_frame--><g id="link_test_contractor_base_frame"><path d="M550.1,169.63 C554.24,197.95 557.92,247.9 541.03,286 C529.94,311.04 506.59,332.13 488.13,345.87 " fill="none" id="test_contractor-backto-base_frame" style="stroke:#D2691E;stroke-width:2.0;"/><polygon fill="#D2691E" points="549.32,164.6,546.7557,174.1092,550.091,169.5402,554.66,172.8755,549.32,164.6" style="stroke:#D2691E;stroke-width:2.0;"/></g><!--reverse link node_log to node_app--><g id="link_node_log_node_app"><path d="M305.43,62.89 C328.88,77.91 356.25,97.83 377.03,120 C412.73,158.08 441.22,213.45 454.28,241.24 " fill="none" id="node_log-backto-node_app" style="stroke:#90EE90;stroke-width:2.0;"/><polygon fill="#90EE90" points="301.09,60.14,306.5624,68.3286,305.3171,62.8105,310.8352,61.5652,301.09,60.14" style="stroke:#90EE90;stroke-width:2.0;"/></g><!--reverse link test_contractor to node_app--><g id="link_test_contractor_node_app"><path d="M529.83,168.91 C513.88,189.99 489.82,221.78 475.07,241.28 " fill="none" id="test_contractor-backto-node_app" style="stroke:#D2691E;stroke-width:2.0;"/><polygon fill="#D2691E" points="532.91,164.84,524.2882,169.6008,529.8918,168.8263,530.6663,174.4299,532.91,164.84" style="stroke:#D2691E;stroke-width:2.0;"/></g><!--reverse link node_app to cli--><g id="link_node_app_cli"><path d="M413.96,279.45 C362.97,299.56 283.58,330.85 237.82,348.89 " fill="none" id="node_app-backto-cli" style="stroke:#00FFFF;stroke-width:2.0;"/><polygon fill="#00FFFF" points="418.81,277.54,408.9692,277.1425,414.1627,279.3846,411.9206,284.5782,418.81,277.54" style="stroke:#00FFFF;stroke-width:2.0;"/></g><!--reverse link node_env to cli--><g id="link_node_env_cli"><path d="M137.32,290.11 C153.34,308.15 173.24,330.57 186.72,345.75 " fill="none" id="node_env-backto-cli" style="stroke:#1E90FF;stroke-width:2.0;"/><polygon fill="#1E90FF" points="133.76,286.1,136.7318,295.4898,137.0747,289.8433,142.7212,290.1862,133.76,286.1" style="stroke:#1E90FF;stroke-width:2.0;"/></g><!--reverse link node_log to cli--><g id="link_node_log_cli"><path d="M198.79,62.57 C140.77,94.66 54.64,153.23 19.03,233 C9.43,254.51 6,266.38 19.03,286 C51.83,335.39 123.17,353.17 166.45,359.52 " fill="none" id="node_log-backto-cli" style="stroke:#90EE90;stroke-width:2.0;"/><polygon fill="#90EE90" points="203.26,60.12,193.4458,60.945,198.8771,62.5263,197.2958,67.9576,203.26,60.12" style="stroke:#90EE90;stroke-width:2.0;"/></g><!--reverse link node_util to cli--><g id="link_node_util_cli"><path d="M266.74,290.11 C250.73,308.15 230.82,330.57 217.35,345.75 " fill="none" id="node_util-backto-cli" style="stroke:#FFD700;stroke-width:2.0;"/><polygon fill="#FFD700" points="270.3,286.1,261.3311,290.1692,266.9782,289.837,267.3104,295.4841,270.3,286.1" style="stroke:#FFD700;stroke-width:2.0;"/></g><!--reverse link node_log to node_env--><g id="link_node_log_node_env"><path d="M227.8,64.15 C213.46,80.01 196.31,100.3 183.03,120 C157.97,157.19 135.22,204.18 122.27,232.76 " fill="none" id="node_log-backto-node_env" style="stroke:#90EE90;stroke-width:2.0;"/><polygon fill="#90EE90" points="231.38,60.21,222.3616,64.1684,228.0124,63.9058,228.2749,69.5566,231.38,60.21" style="stroke:#90EE90;stroke-width:2.0;"/></g><!--reverse link node_log to test_contractor--><g id="link_node_log_test_contractor"><path d="M327.8,61.97 C382.23,82.8 455.32,110.78 501.56,128.48 " fill="none" id="node_log-backto-test_contractor" style="stroke:#90EE90;stroke-width:2.0;"/><polygon fill="#90EE90" points="322.93,60.11,329.9085,67.0599,327.6004,61.8953,332.765,59.5873,322.93,60.11" style="stroke:#90EE90;stroke-width:2.0;"/></g><!--reverse link node_error to node_util--><g id="link_node_error_node_util"><path d="M283.66,178.43 C285.66,195.59 288.13,216.67 290.03,232.89 " fill="none" id="node_error-backto-node_util" style="stroke:#FFC0CB;stroke-width:2.0;"/><polygon fill="#FFC0CB" points="283.05,173.24,280.1039,182.6379,283.621,178.2073,288.0516,181.7244,283.05,173.24" style="stroke:#FFC0CB;stroke-width:2.0;"/></g><!--SRC=[ZLHDJm8n4BttLrGqyRGnyOZ8mNZKcqSJKdQ7RaDfDsrP9CR_xdJTjhjb4RX0v-FDp7ilBAmxIbWIPem-q6z2wPjGy56BSgl0Mlf8ViZYeI-wjrkX6cROZjgQLVeW5ASR9YqGGcxkbAvW1GXaLgMMsj1dsWYr3HcBU4Ahc7jd79HZ8RrtGiOSrx8A2QbvZ4l1QySDW0fPrZGnMnwPZpkm3cFA6LQwmJ9bhV4dSn1tLMrClkgAWtcHUvzTCmkh3Tu9-MHsn7GfHOol9IlzYQqO7QSDKzpJOg1q-5C2dUriNNJqV2eyR-wVVes_s8moInE3zFQ4pXEihhbdDRNtWG0mOZr7y9ndo_XG0lElW9G4oc5G8UGk0y9Wmi57W8boJj-3UgOsV8Isg7FUvTKkajfTS-O0n9Zqn8augisbKUr06DL6MO9pdXnykVcX5kYg7CwxgEXSr64aKo5Axh2y5otMDU4tLaV3ZSRT5wCF8OC9nRufbl-GE5rwHkwJuclv9IHkC9WoQOQiyFe9dg5BrsOrKqBcDPDBPZLdwEglzbCk0HAI7tgv8uqUddJkJ-CN]--></g></svg>