<?xml version="1.0" encoding="us-ascii" standalone="no"?><svg xmlns="http://www.w3.org/2000/svg" xmlns:xlink="http://www.w3.org/1999/xlink" contentStyleType="text/css" height="501px" preserveAspectRatio="none" style="width:777px;height:501px;background:#FFFFFF;" version="1.1" viewBox="0 0 777 501" width="777px" zoomAndPan="magnify"><defs/><g><!--entity error--><g id="elem_error"><rect fill="#FFC0CB" height="52.5938" rx="2.5" ry="2.5" style="stroke:#181818;stroke-width:0.5;" width="159" x="477.34" y="120"/><text fill="#000000" font-family="sans-serif" font-size="14" lengthAdjust="spacing" textLength="71" x="487.34" y="142.9951">msh-error</text><text fill="#000000" font-family="sans-serif" font-size="14" lengthAdjust="spacing" textLength="139" x="487.34" y="159.292">old:msh-node-error</text></g><!--entity node_session--><g id="elem_node_session"><rect fill="#FF00FF" height="36.2969" rx="2.5" ry="2.5" style="stroke:#181818;stroke-width:0.5;" width="148" x="391.84" y="15.5"/><text fill="#000000" font-family="sans-serif" font-size="14" lengthAdjust="spacing" textLength="128" x="401.84" y="38.4951">msh-node-session</text></g><!--entity util--><g id="elem_util"><rect fill="#FFD700" height="52.5938" rx="2.5" ry="2.5" style="stroke:#181818;stroke-width:0.5;" width="145" x="211.34" y="7"/><text fill="#000000" font-family="sans-serif" font-size="14" lengthAdjust="spacing" textLength="57" x="221.34" y="29.9951">msh-util</text><text fill="#000000" font-family="sans-serif" font-size="14" lengthAdjust="spacing" textLength="125" x="221.34" y="46.292">old:msh-node-util</text></g><!--entity logger--><g id="elem_logger"><rect fill="#90EE90" height="52.5938" rx="2.5" ry="2.5" style="stroke:#181818;stroke-width:0.5;" width="145" x="297.34" y="120"/><text fill="#000000" font-family="sans-serif" font-size="14" lengthAdjust="spacing" textLength="81" x="307.34" y="142.9951">msh-logger</text><text fill="#000000" font-family="sans-serif" font-size="14" lengthAdjust="spacing" textLength="125" x="307.34" y="159.292">old:msh-node-log</text></g><!--entity app_boot--><g id="elem_app_boot"><rect fill="#00FFFF" height="52.5938" rx="2.5" ry="2.5" style="stroke:#181818;stroke-width:0.5;" width="150" x="303.84" y="346"/><text fill="#000000" font-family="sans-serif" font-size="14" lengthAdjust="spacing" textLength="103" x="313.84" y="368.9951">msh-app-boop</text><text fill="#000000" font-family="sans-serif" font-size="14" lengthAdjust="spacing" textLength="130" x="313.84" y="385.292">old:msh-node-app</text></g><!--entity test_contractor--><g id="elem_test_contractor"><rect fill="#D2691E" height="36.2969" rx="2.5" ry="2.5" style="stroke:#181818;stroke-width:0.5;" width="193" x="375.34" y="241.5"/><text fill="#000000" font-family="sans-serif" font-size="14" lengthAdjust="spacing" textLength="173" x="385.34" y="264.4951">wip: msh-test-contractor</text></g><!--entity env--><g id="elem_env"><rect fill="#1E90FF" height="52.5938" rx="2.5" ry="2.5" style="stroke:#181818;stroke-width:0.5;" width="149" x="49.34" y="233"/><text fill="#FFFFFF" font-family="sans-serif" font-size="14" lengthAdjust="spacing" textLength="61" x="59.34" y="255.9951">msh-env</text><text fill="#FFFFFF" font-family="sans-serif" font-size="14" lengthAdjust="spacing" textLength="129" x="59.34" y="272.292">old:msh-node-env</text></g><!--entity base_frame--><g id="elem_base_frame"><rect fill="#D3D3D3" height="36.2969" rx="2.5" ry="2.5" style="stroke:#181818;stroke-width:0.5;" width="170" x="421.84" y="459"/><text fill="#000000" font-family="sans-serif" font-size="14" lengthAdjust="spacing" textLength="150" x="431.84" y="481.9951">wip: msh-base-frame</text></g><!--entity cli--><g id="elem_cli"><rect fill="#000000" height="36.2969" rx="2.5" ry="2.5" style="stroke:#181818;stroke-width:0.5;" width="71" x="166.34" y="459"/><text fill="#FFFFFF" font-family="sans-serif" font-size="14" lengthAdjust="spacing" textLength="51" x="176.34" y="481.9951">msh-cli</text></g><!--entity entity--><g id="elem_entity"><rect fill="#F1F1F1" height="36.2969" rx="2.5" ry="2.5" style="stroke:#181818;stroke-width:0.5;" width="128" x="133.84" y="128.5"/><text fill="#000000" font-family="sans-serif" font-size="14" lengthAdjust="spacing" textLength="108" x="143.84" y="151.4951">wip: msh-entity</text></g><!--entity orm--><g id="elem_orm"><rect fill="#F1F1F1" height="36.2969" rx="2.5" ry="2.5" style="stroke:#181818;stroke-width:0.5;" width="117" x="603.34" y="241.5"/><text fill="#000000" font-family="sans-serif" font-size="14" lengthAdjust="spacing" textLength="97" x="613.34" y="264.4951">wip: msh-orm</text></g><!--reverse link app_boot to base_frame--><g id="link_app_boot_base_frame"><path d="M415.4932,402.8506 C438.7432,421.4706 464.92,442.42 485.3,458.75 " fill="none" id="app_boot-backto-base_frame" style="stroke:#00FFFF;stroke-width:2.0;"/><polygon fill="#00FFFF" points="410.81,399.1,415.3345,407.8481,414.7127,402.2255,420.3353,401.6038,410.81,399.1" style="stroke:#00FFFF;stroke-width:2.0;"/></g><!--reverse link test_contractor to base_frame--><g id="link_test_contractor_base_frame"><path d="M475.6119,283.6924 C482.1819,324.1424 497.54,418.71 504.07,458.95 " fill="none" id="test_contractor-backto-base_frame" style="stroke:#D2691E;stroke-width:2.0;"/><polygon fill="#D2691E" points="474.65,277.77,472.1446,287.2949,475.4516,282.7053,480.0412,286.0123,474.65,277.77" style="stroke:#D2691E;stroke-width:2.0;"/></g><!--reverse link util to base_frame--><g id="link_util_base_frame"><path d="M362.2042,57.1702 C368.0842,58.7102 368.15,58.66 373.84,60 C512.97,92.85 578.54,30.29 689.84,120 C749.64,168.19 770.64,216.56 737.84,286 C697.48,371.46 597.76,431.44 543.47,458.97 " fill="none" id="util-backto-base_frame" style="stroke:#FFD700;stroke-width:2.0;"/><polygon fill="#FFD700" points="356.4,55.65,364.0929,61.7997,361.2369,56.9168,366.1198,54.0607,356.4,55.65" style="stroke:#FFD700;stroke-width:2.0;"/></g><!--reverse link logger to app_boot--><g id="link_logger_app_boot"><path d="M363.3848,178.981 C358.2648,206.821 353.09,246.7 357.84,286 C360.32,306.49 366.03,329.14 370.87,345.98 " fill="none" id="logger-backto-app_boot" style="stroke:#90EE90;stroke-width:2.0;"/><polygon fill="#90EE90" points="364.47,173.08,358.9081,181.2081,363.5656,177.9975,366.7762,182.6551,364.47,173.08" style="stroke:#90EE90;stroke-width:2.0;"/></g><!--reverse link test_contractor to app_boot--><g id="link_test_contractor_app_boot"><path d="M453.4572,282.4396 C438.2372,300.6096 418,324.76 400.53,345.62 " fill="none" id="test_contractor-backto-app_boot" style="stroke:#D2691E;stroke-width:2.0;"/><polygon fill="#D2691E" points="457.31,277.84,448.4644,282.1708,454.0993,281.673,454.5972,287.3079,457.31,277.84" style="stroke:#D2691E;stroke-width:2.0;"/></g><!--reverse link app_boot to cli--><g id="link_app_boot_cli"><path d="M329.4477,402.1066 C297.1877,420.7866 259.55,442.58 231.37,458.9 " fill="none" id="app_boot-backto-cli" style="stroke:#00FFFF;stroke-width:2.0;"/><polygon fill="#00FFFF" points="334.64,399.1,324.8471,400.1483,330.3131,401.6055,328.8559,407.0715,334.64,399.1" style="stroke:#00FFFF;stroke-width:2.0;"/></g><!--reverse link env to cli--><g id="link_env_cli"><path d="M135.1421,291.7118 C151.2421,336.1918 181.95,421.05 195.63,458.83 " fill="none" id="env-backto-cli" style="stroke:#1E90FF;stroke-width:2.0;"/><polygon fill="#1E90FF" points="133.1,286.07,132.402,295.8941,134.8018,290.7715,139.9244,293.1713,133.1,286.07" style="stroke:#1E90FF;stroke-width:2.0;"/></g><!--reverse link logger to cli--><g id="link_logger_cli"><path d="M354.0682,178.3421 C321.2282,242.5621 238.5,404.33 210.71,458.66 " fill="none" id="logger-backto-cli" style="stroke:#90EE90;stroke-width:2.0;"/><polygon fill="#90EE90" points="356.8,173,349.141,179.1919,354.5235,177.4517,356.2637,182.8342,356.8,173" style="stroke:#90EE90;stroke-width:2.0;"/></g><!--reverse link util to cli--><g id="link_util_cli"><path d="M205.4988,57.5239 C167.7688,71.1939 128.51,90.1 95.84,120 C53.27,158.97 46.55,177.19 31.84,233 C6,331.08 120.6,422.11 174.8,458.86 " fill="none" id="util-backto-cli" style="stroke:#FFD700;stroke-width:2.0;"/><polygon fill="#FFD700" points="211.14,55.48,201.3157,54.785,206.439,57.1832,204.0408,62.3066,211.14,55.48" style="stroke:#FFD700;stroke-width:2.0;"/></g><!--reverse link logger to env--><g id="link_logger_env"><path d="M307.6306,175.5769 C267.9006,193.4969 220.49,214.89 180.73,232.83 " fill="none" id="logger-backto-env" style="stroke:#90EE90;stroke-width:2.0;"/><polygon fill="#90EE90" points="313.1,173.11,303.2513,173.1641,308.5422,175.1658,306.5405,180.4567,313.1,173.11" style="stroke:#90EE90;stroke-width:2.0;"/></g><!--reverse link util to env--><g id="link_util_env"><path d="M205.4537,54.3095 C170.2037,66.9795 136.71,85.96 115.84,120 C94.69,154.5 104.75,203.36 114.16,232.88 " fill="none" id="util-backto-env" style="stroke:#FFD700;stroke-width:2.0;"/><polygon fill="#FFD700" points="211.1,52.28,201.2775,51.56,206.3947,53.9712,203.9835,59.0885,211.1,52.28" style="stroke:#FFD700;stroke-width:2.0;"/></g><!--reverse link logger to test_contractor--><g id="link_logger_test_contractor"><path d="M397.5601,177.6577 C416.7501,198.5377 439.2,222.98 455.93,241.19 " fill="none" id="logger-backto-test_contractor" style="stroke:#90EE90;stroke-width:2.0;"/><polygon fill="#90EE90" points="393.5,173.24,396.645,182.5732,396.8834,176.9214,402.5352,177.1597,393.5,173.24" style="stroke:#90EE90;stroke-width:2.0;"/></g><!--reverse link util to logger--><g id="link_util_logger"><path d="M307.4632,64.9842 C321.3532,82.9242 336.14,101.99 350.01,119.89 " fill="none" id="util-backto-logger" style="stroke:#FFD700;stroke-width:2.0;"/><polygon fill="#FFD700" points="303.79,60.24,306.137,69.8051,306.851,64.1935,312.4626,64.9075,303.79,60.24" style="stroke:#FFD700;stroke-width:2.0;"/></g><!--reverse link util to entity--><g id="link_util_entity"><path d="M260.2249,64.9827 C244.0449,85.8627 225.37,109.98 211.26,128.19 " fill="none" id="util-backto-entity" style="stroke:#FFD700;stroke-width:2.0;"/><polygon fill="#FFD700" points="263.9,60.24,255.2255,64.904,260.8374,64.1923,261.5491,69.8042,263.9,60.24" style="stroke:#FFD700;stroke-width:2.0;"/></g><!--reverse link util to orm--><g id="link_util_orm"><path d="M362.2269,57.0478 C368.1069,58.6178 368.17,58.59 373.84,60 C497.36,90.7 571.01,23.38 653.84,120 C683.16,154.19 673.91,212.33 666.8,241.19 " fill="none" id="util-backto-orm" style="stroke:#FFD700;stroke-width:2.0;"/><polygon fill="#FFD700" points="356.43,55.5,364.0935,61.6863,361.2608,56.7898,366.1573,53.9571,356.43,55.5" style="stroke:#FFD700;stroke-width:2.0;"/></g><!--reverse link error to orm--><g id="link_error_orm"><path d="M585.3231,177.599 C605.0731,198.479 628.24,222.98 645.47,241.19 " fill="none" id="error-backto-orm" style="stroke:#FFC0CB;stroke-width:2.0;"/><polygon fill="#FFC0CB" points="581.2,173.24,584.4786,182.5271,584.6359,176.8725,590.2905,177.0297,581.2,173.24" style="stroke:#FFC0CB;stroke-width:2.0;"/></g><!--reverse link logger to orm--><g id="link_logger_orm"><path d="M442.8085,175.2418 C498.0585,196.2418 569.1,223.25 617.06,241.48 " fill="none" id="logger-backto-orm" style="stroke:#90EE90;stroke-width:2.0;"/><polygon fill="#90EE90" points="437.2,173.11,444.1916,180.0466,441.8738,174.8865,447.034,172.5686,437.2,173.11" style="stroke:#90EE90;stroke-width:2.0;"/></g><!--SRC=[ZLHDRy8m3BtxLsHi4gTgqewCxJ3jkDrsd5I5Ojg8a5H9W5NJ_lkS59gIbezUclhvlTX-XhbrZSHNuCReFVi5nZw4mgzA56k5rh8d-8Fvuo5fQjT2rTpm3RCLN-gzK2LRSMaH0EuUa3HCNcYf3NjXjL1h2YgznDoIbD2gmpvvYSfnWhTEo2vSQhcacDHbYL58Yh9ofK5KXF6wpXTQkmuj6kxZ3gsFAMTuuNfL59Mc8tVewrExBlwkbtJ7cznwOC4jvYjg2zDBUKDm8KKNNqXUh04C5ewhKYARR6oLXSw_5PK_yv- -vpOsOTooS6Bt_VaC50BbCAP0wi-DkCCnfWf-aaa9FXJ4_854uh1JSZloX4x1m6v1ulUD6NH0pcJaJ9s8K3Y878qZcLCF-pfxKS-OftexisXdK4Wi9g5HqmVUg5tgZDgrlgYTT-Mu5SyEVzniNmbQbj6Y_9faOKq2FMuDgQGhb5P1EnH8zARiRgEktaa_4-6QGxd-E9gbpIQaq1jWcfqy0Br2issTlLxmOf1wwz07nE7A0NJtjYdZUvKatLe0W1_jjVvYJc9-3nalA-9ZdNcrI-o8Zx7J7YyfmI5yLgrTamktqPASHICszgSLqJErmJy0]--></g></svg>