<?xml version="1.0" encoding="us-ascii" standalone="no"?><svg xmlns="http://www.w3.org/2000/svg" xmlns:xlink="http://www.w3.org/1999/xlink" contentStyleType="text/css" height="484px" preserveAspectRatio="none" style="width:874px;height:484px;background:#FFFFFF;" version="1.1" viewBox="0 0 874 484" width="874px" zoomAndPan="magnify"><defs/><g><!--entity error--><g id="elem_error"><rect fill="#FFC0CB" height="52.5938" rx="2.5" ry="2.5" style="stroke:#181818;stroke-width:0.5;" width="159" x="642.26" y="120"/><text fill="#000000" font-family="sans-serif" font-size="14" lengthAdjust="spacing" textLength="71" x="652.26" y="142.9951">msh-error</text><text fill="#000000" font-family="sans-serif" font-size="14" lengthAdjust="spacing" textLength="139" x="652.26" y="159.292">old:msh-node-error</text></g><!--entity node_session--><g id="elem_node_session"><rect fill="#FF00FF" height="36.2969" rx="2.5" ry="2.5" style="stroke:#181818;stroke-width:0.5;" width="148" x="579.76" y="15.5"/><text fill="#000000" font-family="sans-serif" font-size="14" lengthAdjust="spacing" textLength="128" x="589.76" y="38.4951">msh-node-session</text></g><!--entity util--><g id="elem_util"><rect fill="#FFD700" height="52.5938" rx="2.5" ry="2.5" style="stroke:#181818;stroke-width:0.5;" width="145" x="399.26" y="7"/><text fill="#000000" font-family="sans-serif" font-size="14" lengthAdjust="spacing" textLength="57" x="409.26" y="29.9951">msh-util</text><text fill="#000000" font-family="sans-serif" font-size="14" lengthAdjust="spacing" textLength="125" x="409.26" y="46.292">old:msh-node-util</text></g><!--entity logger--><g id="elem_logger"><rect fill="#90EE90" height="52.5938" rx="2.5" ry="2.5" style="stroke:#181818;stroke-width:0.5;" width="145" x="227.26" y="120"/><text fill="#000000" font-family="sans-serif" font-size="14" lengthAdjust="spacing" textLength="81" x="237.26" y="142.9951">msh-logger</text><text fill="#000000" font-family="sans-serif" font-size="14" lengthAdjust="spacing" textLength="125" x="237.26" y="159.292">old:msh-node-log</text></g><!--entity app_boot--><g id="elem_app_boot"><rect fill="#00FFFF" height="52.5938" rx="2.5" ry="2.5" style="stroke:#181818;stroke-width:0.5;" width="150" x="176.76" y="329"/><text fill="#000000" font-family="sans-serif" font-size="14" lengthAdjust="spacing" textLength="103" x="186.76" y="351.9951">msh-app-boop</text><text fill="#000000" font-family="sans-serif" font-size="14" lengthAdjust="spacing" textLength="130" x="186.76" y="368.292">old:msh-node-app</text></g><!--entity test_contractor--><g id="elem_test_contractor"><rect fill="#D2691E" height="36.2969" rx="2.5" ry="2.5" style="stroke:#181818;stroke-width:0.5;" width="193" x="62.26" y="233"/><text fill="#000000" font-family="sans-serif" font-size="14" lengthAdjust="spacing" textLength="173" x="72.26" y="255.9951">wip: msh-test-contractor</text></g><!--entity env--><g id="elem_env"><rect fill="#1E90FF" height="52.5938" rx="2.5" ry="2.5" style="stroke:#181818;stroke-width:0.5;" width="149" x="432.26" y="329"/><text fill="#FFFFFF" font-family="sans-serif" font-size="14" lengthAdjust="spacing" textLength="61" x="442.26" y="351.9951">msh-env</text><text fill="#FFFFFF" font-family="sans-serif" font-size="14" lengthAdjust="spacing" textLength="129" x="442.26" y="368.292">old:msh-node-env</text></g><!--entity base_frame--><g id="elem_base_frame"><rect fill="#D3D3D3" height="36.2969" rx="2.5" ry="2.5" style="stroke:#181818;stroke-width:0.5;" width="170" x="38.76" y="442"/><text fill="#000000" font-family="sans-serif" font-size="14" lengthAdjust="spacing" textLength="150" x="48.76" y="464.9951">wip: msh-base-frame</text></g><!--entity cli--><g id="elem_cli"><rect fill="#000000" height="36.2969" rx="2.5" ry="2.5" style="stroke:#181818;stroke-width:0.5;" width="71" x="407.26" y="442"/><text fill="#FFFFFF" font-family="sans-serif" font-size="14" lengthAdjust="spacing" textLength="51" x="417.26" y="464.9951">msh-cli</text></g><!--entity entity--><g id="elem_entity"><rect fill="#F1F1F1" height="36.2969" rx="2.5" ry="2.5" style="stroke:#181818;stroke-width:0.5;" width="128" x="407.76" y="128.5"/><text fill="#000000" font-family="sans-serif" font-size="14" lengthAdjust="spacing" textLength="108" x="417.76" y="151.4951">wip: msh-entity</text></g><!--entity orm--><g id="elem_orm"><rect fill="#F1F1F1" height="36.2969" rx="2.5" ry="2.5" style="stroke:#181818;stroke-width:0.5;" width="117" x="530.26" y="233"/><text fill="#000000" font-family="sans-serif" font-size="14" lengthAdjust="spacing" textLength="97" x="540.26" y="255.9951">wip: msh-orm</text></g><!--reverse link app_boot to base_frame--><g id="link_app_boot_base_frame"><path d="M215.1068,385.8506 C191.8568,404.4706 165.69,425.42 145.31,441.75 " fill="none" id="app_boot-backto-base_frame" style="stroke:#00FFFF;stroke-width:2.0;"/><polygon fill="#00FFFF" points="219.79,382.1,210.2647,384.6038,215.8873,385.2255,215.2655,390.8481,219.79,382.1" style="stroke:#00FFFF;stroke-width:2.0;"/></g><!--reverse link test_contractor to base_frame--><g id="link_test_contractor_base_frame"><path d="M154.8389,275.2059 C148.2289,314.2659 133.23,403.03 126.65,441.9 " fill="none" id="test_contractor-backto-base_frame" style="stroke:#D2691E;stroke-width:2.0;"/><polygon fill="#D2691E" points="155.84,269.29,150.3944,277.4964,155.0057,274.2199,158.2822,278.8313,155.84,269.29" style="stroke:#D2691E;stroke-width:2.0;"/></g><!--reverse link util to base_frame--><g id="link_util_base_frame"><path d="M392.9867,43.1321 C290.1667,58.5921 113.29,103.01 44.76,233 C6,306.54 76.02,403.11 108.51,441.84 " fill="none" id="util-backto-base_frame" style="stroke:#FFD700;stroke-width:2.0;"/><polygon fill="#FFD700" points="398.92,42.24,389.4253,39.6227,393.9756,42.9834,390.6148,47.5337,398.92,42.24" style="stroke:#FFD700;stroke-width:2.0;"/></g><!--reverse link logger to app_boot--><g id="link_logger_app_boot"><path d="M292.9654,179.0031 C287.6154,203.6131 280.49,235.97 272.76,269 C268.06,289.09 262.48,311.77 258.25,328.72 " fill="none" id="logger-backto-app_boot" style="stroke:#90EE90;stroke-width:2.0;"/><polygon fill="#90EE90" points="294.24,173.14,288.4194,181.0849,293.1779,178.0259,296.2368,182.7843,294.24,173.14" style="stroke:#90EE90;stroke-width:2.0;"/></g><!--reverse link test_contractor to app_boot--><g id="link_test_contractor_app_boot"><path d="M178.5722,273.8331 C193.3922,290.1631 211.72,310.37 228.57,328.94 " fill="none" id="test_contractor-backto-app_boot" style="stroke:#D2691E;stroke-width:2.0;"/><polygon fill="#D2691E" points="174.54,269.39,177.6263,278.7428,177.9002,273.0926,183.5504,273.3665,174.54,269.39" style="stroke:#D2691E;stroke-width:2.0;"/></g><!--reverse link app_boot to cli--><g id="link_app_boot_cli"><path d="M304.7565,384.9377 C339.5565,403.6177 380.49,425.58 410.9,441.9 " fill="none" id="app_boot-backto-cli" style="stroke:#00FFFF;stroke-width:2.0;"/><polygon fill="#00FFFF" points="299.47,382.1,305.508,389.8809,303.8754,384.4648,309.2916,382.8322,299.47,382.1" style="stroke:#00FFFF;stroke-width:2.0;"/></g><!--reverse link env to cli--><g id="link_env_cli"><path d="M487.6015,387.1889 C475.9715,405.8089 463.73,425.42 453.54,441.75 " fill="none" id="env-backto-cli" style="stroke:#1E90FF;stroke-width:2.0;"/><polygon fill="#1E90FF" points="490.78,382.1,482.6196,387.6144,488.1312,386.3408,489.4048,391.8524,490.78,382.1" style="stroke:#1E90FF;stroke-width:2.0;"/></g><!--reverse link logger to cli--><g id="link_logger_cli"><path d="M314.0931,178.7129 C342.3931,240.3629 410.96,389.73 434.82,441.69 " fill="none" id="logger-backto-cli" style="stroke:#90EE90;stroke-width:2.0;"/><polygon fill="#90EE90" points="311.59,173.26,311.7094,183.1081,313.6759,177.8041,318.98,179.7706,311.59,173.26" style="stroke:#90EE90;stroke-width:2.0;"/></g><!--reverse link util to cli--><g id="link_util_cli"><path d="M550.4942,56.7978 C556.5942,58.4378 556.88,58.49 562.76,60 C683.21,90.98 867.83,58.72 818.76,173 C753.73,324.48 559.03,414.4 478.37,446.05 " fill="none" id="util-backto-cli" style="stroke:#FFD700;stroke-width:2.0;"/><polygon fill="#FFD700" points="544.7,55.24,552.3528,61.4395,549.5285,56.5382,554.4299,53.7139,544.7,55.24" style="stroke:#FFD700;stroke-width:2.0;"/></g><!--reverse link logger to env--><g id="link_logger_env"><path d="M339.9011,176.825 C361.2411,193.005 383.7,211.26 405.76,233 C436.83,263.61 468.27,303.07 487.63,328.57 " fill="none" id="logger-backto-env" style="stroke:#90EE90;stroke-width:2.0;"/><polygon fill="#90EE90" points="335.12,173.2,339.875,181.825,339.1043,176.2209,344.7084,175.4502,335.12,173.2" style="stroke:#90EE90;stroke-width:2.0;"/></g><!--reverse link logger to test_contractor--><g id="link_logger_test_contractor"><path d="M259.6964,176.6275 C234.0764,195.2475 204.95,216.42 182.5,232.75 " fill="none" id="logger-backto-test_contractor" style="stroke:#90EE90;stroke-width:2.0;"/><polygon fill="#90EE90" points="264.55,173.1,254.918,175.1555,260.5054,176.0395,259.6213,181.6269,264.55,173.1" style="stroke:#90EE90;stroke-width:2.0;"/></g><!--reverse link util to logger--><g id="link_util_logger"><path d="M426.8291,63.4942 C399.0391,81.4342 367.18,101.99 339.44,119.89 " fill="none" id="util-backto-logger" style="stroke:#FFD700;stroke-width:2.0;"/><polygon fill="#FFD700" points="431.87,60.24,422.1392,61.7607,427.6693,62.9518,426.4781,68.4818,431.87,60.24" style="stroke:#FFD700;stroke-width:2.0;"/></g><!--reverse link util to entity--><g id="link_util_entity"><path d="M471.76,66.24 C471.76,87.12 471.76,109.98 471.76,128.19 " fill="none" id="util-backto-entity" style="stroke:#FFD700;stroke-width:2.0;"/><polygon fill="#FFD700" points="471.76,60.24,467.76,69.24,471.76,65.24,475.76,69.24,471.76,60.24" style="stroke:#FFD700;stroke-width:2.0;"/></g><!--reverse link util to orm--><g id="link_util_orm"><path d="M507.506,64.079 C524.776,79.729 540.83,97.07 553.76,120 C574.67,157.05 583.54,207.12 586.92,232.98 " fill="none" id="util-backto-orm" style="stroke:#FFD700;stroke-width:2.0;"/><polygon fill="#FFD700" points="503.06,60.05,507.0431,69.0575,506.765,63.4075,512.4151,63.1294,503.06,60.05" style="stroke:#FFD700;stroke-width:2.0;"/></g><!--reverse link error to orm--><g id="link_error_orm"><path d="M683.7976,176.7626 C659.6376,195.3826 632.33,216.42 611.15,232.75 " fill="none" id="error-backto-orm" style="stroke:#FFC0CB;stroke-width:2.0;"/><polygon fill="#FFC0CB" points="688.55,173.1,678.9797,175.4257,684.5897,176.1522,683.8632,181.7622,688.55,173.1" style="stroke:#FFC0CB;stroke-width:2.0;"/></g><!--reverse link logger to orm--><g id="link_logger_orm"><path d="M377.5949,175.1056 C430.2649,193.7856 494.54,216.58 540.56,232.9 " fill="none" id="logger-backto-orm" style="stroke:#90EE90;stroke-width:2.0;"/><polygon fill="#90EE90" points="371.94,173.1,379.0853,179.8783,376.6524,174.7713,381.7594,172.3384,371.94,173.1" style="stroke:#90EE90;stroke-width:2.0;"/></g><!--SRC=[ZLHDJyCm3BtxLuI1j5E5n74C3eWZt3WYLLddjL6pf4goZGhntt7IhktIxgENfk_PBxQVjwLrjSHNuCRe0_i5nZw4mgz2PAL2QzaJ_C7oiGsQsrAeYXk-PRRWQtqGAcSRBYq2mDq3aeP9CosrOI-i4geaKEarffQaX5OTzybpL8uJlND2Td2kvPemgVCSUo4fyiBb1b4HnwigNMdjEZQhkSSTMeyfPtZc1bLaXQOZT-ZhK_iEVzThkkDDxZonuXRJ3RM5yQMy9ZgJeiDNacSbWC7CSPLBPBEjBPBG-RUYyXV-q_VSO3F6BGidTZ-SpqWXfBHZ2ad3kL7kU8onWfzaL8A7WfW_a4W_x3Yv6NcKJc38RaZA7nepwe2SISYPAX8XE8WSZIEPKm-7EWTHBPXFzNOclPr18RAOX2PD7tcZzh4pQj_uelRUbUDMF3lySOj38MXP9eloQvA4DGdf_TQGIhn2SHMqGo69tXJTRTJLE-bd8bpTbkkFar7QR4C8lG7coSa3C2WqsLN9wmKlHg6t3dsKE5uvWExU9cHwhwAWMmi0yAEzrbyV4va_OARBwlcfphpQfMo0k8-BqIryzhvc5IxKGujmbksvgJ-cdZtNoJy0]--></g></svg>