<?xml version="1.0" encoding="UTF-8" standalone="no"?><svg xmlns="http://www.w3.org/2000/svg" xmlns:xlink="http://www.w3.org/1999/xlink" contentScriptType="application/ecmascript" contentStyleType="text/css" height="343px" preserveAspectRatio="none" style="width:638px;height:343px;background:#FFFFFF;" version="1.1" viewBox="0 0 638 343" width="638px" zoomAndPan="magnify"><defs><filter height="300%" id="f1cvawyjxps370" width="300%" x="-1" y="-1"><feGaussianBlur result="blurOut" stdDeviation="2.0"/><feColorMatrix in="blurOut" result="blurOut2" type="matrix" values="0 0 0 0 0 0 0 0 0 0 0 0 0 0 0 0 0 0 .4 0"/><feOffset dx="4.0" dy="4.0" in="blurOut2" result="blurOut3"/><feBlend in="SourceGraphic" in2="blurOut3" mode="normal"/></filter></defs><g><!--MD5=[ee1136c2fea667c858da6db18ea920f9]
entity node_error--><rect fill="#FFC0CB" filter="url(#f1cvawyjxps370)" height="36.2969" style="stroke:#A80036;stroke-width:1.0;" width="132" x="306.79" y="7"/><text fill="#000000" font-family="sans-serif" font-size="14" lengthAdjust="spacing" textLength="112" x="316.79" y="29.9951">msh-node-error</text><!--MD5=[dc761494ee1b9b4244e1fb624f515d0f]
entity node_session--><rect fill="#FF00FF" filter="url(#f1cvawyjxps370)" height="36.2969" style="stroke:#A80036;stroke-width:1.0;" width="148" x="59.79" y="103"/><text fill="#000000" font-family="sans-serif" font-size="14" lengthAdjust="spacing" textLength="128" x="69.79" y="125.9951">msh-node-session</text><!--MD5=[54df67121562196fffa2352ae78be17e]
entity node_util--><rect fill="#FFD700" filter="url(#f1cvawyjxps370)" height="36.2969" style="stroke:#A80036;stroke-width:1.0;" width="118" x="313.79" y="103"/><text fill="#000000" font-family="sans-serif" font-size="14" lengthAdjust="spacing" textLength="98" x="323.79" y="125.9951">msh-node-util</text><!--MD5=[a937e882fe30e40f6612a11c0a4df80e]
entity node_log--><rect fill="#90EE90" filter="url(#f1cvawyjxps370)" height="36.2969" style="stroke:#A80036;stroke-width:1.0;" width="118" x="50.79" y="7"/><text fill="#000000" font-family="sans-serif" font-size="14" lengthAdjust="spacing" textLength="98" x="60.79" y="29.9951">msh-node-log</text><!--MD5=[528e974334f1ea53c49b315589e37ed7]
entity node_app--><rect fill="#00FFFF" filter="url(#f1cvawyjxps370)" height="36.2969" style="stroke:#A80036;stroke-width:1.0;" width="123" x="217.29" y="199"/><text fill="#000000" font-family="sans-serif" font-size="14" lengthAdjust="spacing" textLength="103" x="227.29" y="221.9951">msh-node-app</text><!--MD5=[b9c22c1389906d5c5d843de05ade5a78]
entity test_contractor--><rect fill="#D2691E" filter="url(#f1cvawyjxps370)" height="36.2969" style="stroke:#A80036;stroke-width:1.0;" width="160" x="466.79" y="103"/><text fill="#000000" font-family="sans-serif" font-size="14" lengthAdjust="spacing" textLength="140" x="476.79" y="125.9951">msh-test-contractor</text><!--MD5=[5aad52933b20a115e99239acc3f6ddb1]
entity node_env--><rect fill="#1E90FF" filter="url(#f1cvawyjxps370)" height="36.2969" style="stroke:#A80036;stroke-width:1.0;" width="122" x="59.79" y="199"/><text fill="#FFFFFF" font-family="sans-serif" font-size="14" lengthAdjust="spacing" textLength="102" x="69.79" y="221.9951">msh-node-env</text><!--MD5=[893e59ef80d0d7ffc68896a5e14db9fb]
entity base_frame--><rect fill="#D3D3D3" filter="url(#f1cvawyjxps370)" height="36.2969" style="stroke:#A80036;stroke-width:1.0;" width="137" x="325.29" y="295"/><text fill="#000000" font-family="sans-serif" font-size="14" lengthAdjust="spacing" textLength="117" x="335.29" y="317.9951">msh-base-frame</text><!--MD5=[c251b62818238b6f79269adc5bf7d1e2]
entity cli--><rect fill="#000000" filter="url(#f1cvawyjxps370)" height="36.2969" style="stroke:#A80036;stroke-width:1.0;" width="71" x="212.29" y="295"/><text fill="#FFFFFF" font-family="sans-serif" font-size="14" lengthAdjust="spacing" textLength="51" x="222.29" y="317.9951">msh-cli</text><!--MD5=[9408c6bf5129b5837c7d0a66c91047f1]
entity vision--><rect fill="#FFA500" filter="url(#f1cvawyjxps370)" height="36.2969" style="stroke:#A80036;stroke-width:1.0;" width="96" x="15.79" y="295"/><text fill="#000000" font-family="sans-serif" font-size="14" lengthAdjust="spacing" textLength="76" x="25.79" y="317.9951">msh-vision</text><!--MD5=[8b8265dfffc2fdcf005ec848823c3abb]
reverse link node_app to vision--><path d="M235.21,237.05 C196.4,254.02 140.15,278.61 102.8,294.95 " fill="none" id="node_app-backto-vision" style="stroke:#00FFFF;stroke-width:2.0;"/><polygon fill="#00FFFF" points="239.85,235.02,230.0014,234.9515,235.2669,237.0188,233.1995,242.2844,239.85,235.02" style="stroke:#00FFFF;stroke-width:2.0;"/><!--MD5=[0700c1bdae0325f7174be48b221851dd]
reverse link node_env to vision--><path d="M107.57,239.8 C97.41,256.56 83.56,279.4 74.18,294.87 " fill="none" id="node_env-backto-vision" style="stroke:#1E90FF;stroke-width:2.0;"/><polygon fill="#1E90FF" points="110.33,235.24,102.2557,240.8797,107.747,239.5212,109.1056,245.0125,110.33,235.24" style="stroke:#1E90FF;stroke-width:2.0;"/><!--MD5=[421b48379afd5c15e1738fa5aa14cbcd]
reverse link node_util to vision--><path d="M308.6,132.55 C217.12,148.23 58.4,178.08 41.79,199 C19.67,226.86 38.94,270.61 52.74,294.68 " fill="none" id="node_util-backto-vision" style="stroke:#FFD700;stroke-width:2.0;"/><polygon fill="#FFD700" points="313.71,131.68,304.1645,129.2543,308.7815,132.5228,305.5131,137.1399,313.71,131.68" style="stroke:#FFD700;stroke-width:2.0;"/><!--MD5=[b798392f87e4a3b3b15584a68a1f559e]
reverse link node_log to vision--><path d="M79.58,46.62 C62.07,60.37 41.44,80.11 30.79,103 C6,156.27 9.85,177.93 23.79,235 C29.19,257.1 42.13,279.92 51.85,294.92 " fill="none" id="node_log-backto-vision" style="stroke:#90EE90;stroke-width:2.0;"/><polygon fill="#90EE90" points="83.95,43.25,74.3783,45.5702,79.9879,46.2999,79.2582,51.9095,83.95,43.25" style="stroke:#90EE90;stroke-width:2.0;"/><!--MD5=[9a0f982d118d04df248efa98f9a8525d]
reverse link node_app to base_frame--><path d="M303.62,238.3 C324.24,255.15 353.23,278.85 372.73,294.79 " fill="none" id="node_app-backto-base_frame" style="stroke:#00FFFF;stroke-width:2.0;"/><polygon fill="#00FFFF" points="299.61,235.02,304.0568,243.8078,303.4849,238.18,309.1127,237.608,299.61,235.02" style="stroke:#00FFFF;stroke-width:2.0;"/><!--MD5=[d18bb5b8b3147562fd308e3971802be0]
reverse link node_util to base_frame--><path d="M375.28,144.59 C379.54,183.1 388.11,260.65 391.91,294.98 " fill="none" id="node_util-backto-base_frame" style="stroke:#FFD700;stroke-width:2.0;"/><polygon fill="#FFD700" points="374.69,139.2,371.7172,148.5895,375.2469,144.1689,379.6675,147.6985,374.69,139.2" style="stroke:#FFD700;stroke-width:2.0;"/><!--MD5=[18d9e756ee8c530163794b388a18b37d]
reverse link test_contractor to base_frame--><path d="M529.73,143.18 C499.13,181.19 435.48,260.23 407.49,294.98 " fill="none" id="test_contractor-backto-base_frame" style="stroke:#D2691E;stroke-width:2.0;"/><polygon fill="#D2691E" points="532.94,139.2,524.1782,143.6978,529.8026,143.0932,530.4073,148.7176,532.94,139.2" style="stroke:#D2691E;stroke-width:2.0;"/><!--MD5=[860c5d061bcab264f96d921baa155752]
reverse link node_log to node_app--><path d="M150,45.46 C174.42,58.9 204.83,78.7 225.79,103 C250.84,132.04 266.58,174.94 273.92,198.66 " fill="none" id="node_log-backto-node_app" style="stroke:#90EE90;stroke-width:2.0;"/><polygon fill="#90EE90" points="145.51,43.03,151.5046,50.8444,149.9022,45.4192,155.3274,43.8169,145.51,43.03" style="stroke:#90EE90;stroke-width:2.0;"/><!--MD5=[f926b658a339def5f7fe5738d7364925]
reverse link node_session to node_app--><path d="M164.45,141.88 C190.48,158.75 227.45,182.72 252.24,198.79 " fill="none" id="node_session-backto-node_app" style="stroke:#FF00FF;stroke-width:2.0;"/><polygon fill="#FF00FF" points="160.05,139.02,165.4378,147.2645,164.2494,141.7339,169.78,140.5455,160.05,139.02" style="stroke:#FF00FF;stroke-width:2.0;"/><!--MD5=[4be3d5f4d0ca4254a7d598c40ea21d4f]
reverse link node_util to node_app--><path d="M351.85,142.94 C335.01,159.78 311.65,183.14 295.92,198.87 " fill="none" id="node_util-backto-node_app" style="stroke:#FFD700;stroke-width:2.0;"/><polygon fill="#FFD700" points="355.55,139.24,346.3648,142.7941,352.0216,142.7827,352.033,148.4395,355.55,139.24" style="stroke:#FFD700;stroke-width:2.0;"/><!--MD5=[cfb0aa061ae35c8c3e81af622c39f0ee]
reverse link test_contractor to node_app--><path d="M493.35,140.74 C444.95,157.72 374.26,182.52 327.41,198.95 " fill="none" id="test_contractor-backto-node_app" style="stroke:#D2691E;stroke-width:2.0;"/><polygon fill="#D2691E" points="498.26,139.02,488.4428,138.231,493.5429,140.6781,491.0958,145.7783,498.26,139.02" style="stroke:#D2691E;stroke-width:2.0;"/><!--MD5=[c1c883930f1a801d3a88bdc384345635]
reverse link node_app to cli--><path d="M271.46,240.23 C265.94,256.95 258.5,279.53 253.44,294.87 " fill="none" id="node_app-backto-cli" style="stroke:#00FFFF;stroke-width:2.0;"/><polygon fill="#00FFFF" points="273.1,235.24,266.4789,242.5312,271.5317,239.9877,274.0752,245.0405,273.1,235.24" style="stroke:#00FFFF;stroke-width:2.0;"/><!--MD5=[9c7fc7b123386b90749a7d5b5cdb2abd]
reverse link node_env to cli--><path d="M147.93,238.09 C170.71,254.95 202.91,278.79 224.53,294.79 " fill="none" id="node_env-backto-cli" style="stroke:#1E90FF;stroke-width:2.0;"/><polygon fill="#1E90FF" points="143.79,235.02,148.644,243.5896,147.8088,237.9948,153.4037,237.1595,143.79,235.02" style="stroke:#1E90FF;stroke-width:2.0;"/><!--MD5=[cf51d2c8ff4a078456be2523d4207e92]
reverse link node_log to node_env--><path d="M83.33,46.57 C58.56,68.51 27.35,104.76 41.79,139 C52.43,164.24 75.83,185.3 94.42,198.99 " fill="none" id="node_log-backto-node_env" style="stroke:#90EE90;stroke-width:2.0;"/><polygon fill="#90EE90" points="87.24,43.17,77.8211,46.0484,83.4639,46.4474,83.0649,52.0901,87.24,43.17" style="stroke:#90EE90;stroke-width:2.0;"/><!--MD5=[0d0a0e7bd68d085df5ab3ad3aad2bfa8]
reverse link node_log to test_contractor--><path d="M174.24,39.86 C252.21,56.64 383.46,84.87 467.54,102.95 " fill="none" id="node_log-backto-test_contractor" style="stroke:#90EE90;stroke-width:2.0;"/><polygon fill="#90EE90" points="169.18,38.78,177.1305,44.5929,174.0669,39.8374,178.8224,36.7738,169.18,38.78" style="stroke:#90EE90;stroke-width:2.0;"/><!--MD5=[62bbe52dff9b8b54d85f2f2f62989f8b]
reverse link node_error to node_util--><path d="M372.79,48.66 C372.79,65.34 372.79,87.66 372.79,102.87 " fill="none" id="node_error-backto-node_util" style="stroke:#FFC0CB;stroke-width:2.0;"/><polygon fill="#FFC0CB" points="372.79,43.24,368.79,52.24,372.79,48.24,376.79,52.24,372.79,43.24" style="stroke:#FFC0CB;stroke-width:2.0;"/><!--MD5=[c6f00e43898772b38641da1a1d576210]
@startuml
<style>
arrow {
  LineThickness 2
}
</style>
'skinparam shadowing false


!$node_error_color = pink
!$node_session_color = Magenta
!$node_util_color = gold
!$node_log_color = lightgreen
!$node_app_color = cyan
!$test_contractor_color = chocolate
!$node_env_color = DodgerBlue
!$base_frame_color = lightgray
!$cli_color = black
!$vision_color = orange


rectangle "msh-node-error" as node_error #$node_error_color

rectangle "msh-node-session" as node_session #$node_session_color
rectangle "msh-node-util" as node_util #$node_util_color
rectangle "msh-node-log" as node_log #$node_log_color

rectangle "msh-node-app" as node_app #$node_app_color
rectangle "msh-test-contractor" as test_contractor #$test_contractor_color
rectangle "msh-node-env" as node_env #$node_env_color;text:white

rectangle "msh-base-frame" as base_frame #$base_frame_color
rectangle "msh-cli" as cli #$cli_color;text:white
rectangle "msh-vision" as vision #$vision_color

'- - - - - - - - - - - - - -

vision -up-> node_app #$node_app_color
vision -up-> node_env #$node_env_color
vision -up-> node_util #$node_util_color
vision -up-> node_log #$node_log_color


base_frame -up-> node_app #$node_app_color
base_frame -up-> node_util #$node_util_color
base_frame -up-> test_contractor #$test_contractor_color


node_app -up-> node_log #$node_log_color
node_app -up-> node_session #$node_session_color
node_app -up-> node_util #$node_util_color
node_app -up-> test_contractor #$test_contractor_color


cli -up-> node_app #$node_app_color
cli -up-> node_env #$node_env_color


node_env -up-> node_log #$node_log_color


test_contractor -up-> node_log #$node_log_color


node_util -up-> node_error #$node_error_color

@enduml

@startuml
<style>
arrow {
  LineThickness 2
}
</style>




rectangle "msh-node-error" as node_error #pink

rectangle "msh-node-session" as node_session #Magenta
rectangle "msh-node-util" as node_util #gold
rectangle "msh-node-log" as node_log #lightgreen

rectangle "msh-node-app" as node_app #cyan
rectangle "msh-test-contractor" as test_contractor #chocolate
rectangle "msh-node-env" as node_env #DodgerBlue;text:white

rectangle "msh-base-frame" as base_frame #lightgray
rectangle "msh-cli" as cli #black;text:white
rectangle "msh-vision" as vision #orange


vision -up-> node_app #cyan
vision -up-> node_env #DodgerBlue
vision -up-> node_util #gold
vision -up-> node_log #lightgreen


base_frame -up-> node_app #cyan
base_frame -up-> node_util #gold
base_frame -up-> test_contractor #chocolate


node_app -up-> node_log #lightgreen
node_app -up-> node_session #Magenta
node_app -up-> node_util #gold
node_app -up-> test_contractor #chocolate


cli -up-> node_app #cyan
cli -up-> node_env #DodgerBlue


node_env -up-> node_log #lightgreen


test_contractor -up-> node_log #lightgreen


node_util -up-> node_error #pink

@enduml

PlantUML version 1.2021.11(Sat Oct 02 15:26:11 CEST 2021)
(GPL source distribution)
Java Runtime: OpenJDK Runtime Environment
JVM: OpenJDK 64-Bit Server VM
Default Encoding: UTF-8
Language: en
Country: US
--></g></svg>