<?xml version="1.0" encoding="us-ascii" standalone="no"?><svg xmlns="http://www.w3.org/2000/svg" xmlns:xlink="http://www.w3.org/1999/xlink" contentStyleType="text/css" height="388px" preserveAspectRatio="none" style="width:632px;height:388px;background:#FFFFFF;" version="1.1" viewBox="0 0 632 388" width="632px" zoomAndPan="magnify"><defs/><g><!--entity error--><g id="elem_error"><rect fill="#FFC0CB" height="52.5938" rx="2.5" ry="2.5" style="stroke:#181818;stroke-width:0.5;" width="159" x="200.53" y="120"/><text fill="#000000" font-family="sans-serif" font-size="14" lengthAdjust="spacing" textLength="71" x="210.53" y="142.9951">msh-error</text><text fill="#000000" font-family="sans-serif" font-size="14" lengthAdjust="spacing" textLength="139" x="210.53" y="159.292">old:msh-node-error</text></g><!--entity node_session--><g id="elem_node_session"><rect fill="#FF00FF" height="36.2969" rx="2.5" ry="2.5" style="stroke:#181818;stroke-width:0.5;" width="148" x="364.03" y="15.5"/><text fill="#000000" font-family="sans-serif" font-size="14" lengthAdjust="spacing" textLength="128" x="374.03" y="38.4951">msh-node-session</text></g><!--entity util--><g id="elem_util"><rect fill="#FFD700" height="52.5938" rx="2.5" ry="2.5" style="stroke:#181818;stroke-width:0.5;" width="145" x="220.53" y="233"/><text fill="#000000" font-family="sans-serif" font-size="14" lengthAdjust="spacing" textLength="57" x="230.53" y="255.9951">msh-util</text><text fill="#000000" font-family="sans-serif" font-size="14" lengthAdjust="spacing" textLength="125" x="230.53" y="272.292">old:msh-node-util</text></g><!--entity logger--><g id="elem_logger"><rect fill="#90EE90" height="52.5938" rx="2.5" ry="2.5" style="stroke:#181818;stroke-width:0.5;" width="145" x="183.53" y="7"/><text fill="#000000" font-family="sans-serif" font-size="14" lengthAdjust="spacing" textLength="81" x="193.53" y="29.9951">msh-logger</text><text fill="#000000" font-family="sans-serif" font-size="14" lengthAdjust="spacing" textLength="125" x="193.53" y="46.292">old:msh-node-log</text></g><!--entity app_boot--><g id="elem_app_boot"><rect fill="#00FFFF" height="52.5938" rx="2.5" ry="2.5" style="stroke:#181818;stroke-width:0.5;" width="150" x="401.03" y="233"/><text fill="#000000" font-family="sans-serif" font-size="14" lengthAdjust="spacing" textLength="103" x="411.03" y="255.9951">msh-app-boop</text><text fill="#000000" font-family="sans-serif" font-size="14" lengthAdjust="spacing" textLength="130" x="411.03" y="272.292">old:msh-node-app</text></g><!--entity test_contractor--><g id="elem_test_contractor"><rect fill="#D2691E" height="36.2969" rx="2.5" ry="2.5" style="stroke:#181818;stroke-width:0.5;" width="160" x="466.03" y="128.5"/><text fill="#000000" font-family="sans-serif" font-size="14" lengthAdjust="spacing" textLength="140" x="476.03" y="151.4951">msh-test-contractor</text></g><!--entity env--><g id="elem_env"><rect fill="#1E90FF" height="52.5938" rx="2.5" ry="2.5" style="stroke:#181818;stroke-width:0.5;" width="149" x="36.53" y="233"/><text fill="#FFFFFF" font-family="sans-serif" font-size="14" lengthAdjust="spacing" textLength="61" x="46.53" y="255.9951">msh-env</text><text fill="#FFFFFF" font-family="sans-serif" font-size="14" lengthAdjust="spacing" textLength="129" x="46.53" y="272.292">old:msh-node-env</text></g><!--entity base_frame--><g id="elem_base_frame"><rect fill="#D3D3D3" height="36.2969" rx="2.5" ry="2.5" style="stroke:#181818;stroke-width:0.5;" width="137" x="407.53" y="346"/><text fill="#000000" font-family="sans-serif" font-size="14" lengthAdjust="spacing" textLength="117" x="417.53" y="368.9951">msh-base-frame</text></g><!--entity cli--><g id="elem_cli"><rect fill="#000000" height="36.2969" rx="2.5" ry="2.5" style="stroke:#181818;stroke-width:0.5;" width="71" x="166.53" y="346"/><text fill="#FFFFFF" font-family="sans-serif" font-size="14" lengthAdjust="spacing" textLength="51" x="176.53" y="368.9951">msh-cli</text></g><!--reverse link app_boot to base_frame--><g id="link_app_boot_base_frame"><path d="M476.03,291.49 C476.03,309.28 476.03,330.95 476.03,345.75 " fill="none" id="app_boot-backto-base_frame" style="stroke:#00FFFF;stroke-width:2.0;"/><polygon fill="#00FFFF" points="476.03,286.1,472.03,295.1,476.03,291.1,480.03,295.1,476.03,286.1" style="stroke:#00FFFF;stroke-width:2.0;"/></g><!--reverse link util to base_frame--><g id="link_util_base_frame"><path d="M343.5,288.77 C376.2,307.09 417.73,330.35 445.51,345.9 " fill="none" id="util-backto-base_frame" style="stroke:#FFD700;stroke-width:2.0;"/><polygon fill="#FFD700" points="338.74,286.1,344.6342,293.9904,343.1013,288.5452,348.5465,287.0123,338.74,286.1" style="stroke:#FFD700;stroke-width:2.0;"/></g><!--reverse link test_contractor to base_frame--><g id="link_test_contractor_base_frame"><path d="M556.89,169.24 C569.37,197.46 585.95,247.63 568.03,286 C555.78,312.23 529.71,332.68 508.44,345.89 " fill="none" id="test_contractor-backto-base_frame" style="stroke:#D2691E;stroke-width:2.0;"/><polygon fill="#D2691E" points="554.77,164.57,554.8528,174.4185,556.839,169.1218,562.1357,171.1081,554.77,164.57" style="stroke:#D2691E;stroke-width:2.0;"/></g><!--reverse link logger to app_boot--><g id="link_logger_app_boot"><path d="M303.65,62.81 C327.18,78.08 355.14,98.23 377.03,120 C412.13,154.91 443.68,203.43 461.3,232.8 " fill="none" id="logger-backto-app_boot" style="stroke:#90EE90;stroke-width:2.0;"/><polygon fill="#90EE90" points="299.31,60.02,304.7303,68.2432,303.5201,62.7173,309.0459,61.5071,299.31,60.02" style="stroke:#90EE90;stroke-width:2.0;"/></g><!--reverse link test_contractor to app_boot--><g id="link_test_contractor_app_boot"><path d="M532.29,169.29 C520.83,187.46 504.48,213.39 492.36,232.62 " fill="none" id="test_contractor-backto-app_boot" style="stroke:#D2691E;stroke-width:2.0;"/><polygon fill="#D2691E" points="535.09,164.84,526.9014,170.3124,532.4195,169.0671,533.6648,174.5852,535.09,164.84" style="stroke:#D2691E;stroke-width:2.0;"/></g><!--reverse link app_boot to cli--><g id="link_app_boot_cli"><path d="M402.81,287.89 C349.45,307.85 279.48,334.03 237.8,349.62 " fill="none" id="app_boot-backto-cli" style="stroke:#00FFFF;stroke-width:2.0;"/><polygon fill="#00FFFF" points="407.6,286.1,397.7685,285.5148,402.9184,287.8556,400.5775,293.0054,407.6,286.1" style="stroke:#00FFFF;stroke-width:2.0;"/></g><!--reverse link env to cli--><g id="link_env_cli"><path d="M137.32,290.11 C153.34,308.15 173.24,330.57 186.72,345.75 " fill="none" id="env-backto-cli" style="stroke:#1E90FF;stroke-width:2.0;"/><polygon fill="#1E90FF" points="133.76,286.1,136.7318,295.4898,137.0747,289.8433,142.7212,290.1862,133.76,286.1" style="stroke:#1E90FF;stroke-width:2.0;"/></g><!--reverse link logger to cli--><g id="link_logger_cli"><path d="M198.79,62.57 C140.77,94.66 54.64,153.23 19.03,233 C9.43,254.51 6,266.38 19.03,286 C51.83,335.39 123.17,353.17 166.45,359.52 " fill="none" id="logger-backto-cli" style="stroke:#90EE90;stroke-width:2.0;"/><polygon fill="#90EE90" points="203.26,60.12,193.4458,60.945,198.8771,62.5263,197.2958,67.9576,203.26,60.12" style="stroke:#90EE90;stroke-width:2.0;"/></g><!--reverse link util to cli--><g id="link_util_cli"><path d="M266.74,290.11 C250.73,308.15 230.82,330.57 217.35,345.75 " fill="none" id="util-backto-cli" style="stroke:#FFD700;stroke-width:2.0;"/><polygon fill="#FFD700" points="270.3,286.1,261.3311,290.1692,266.9782,289.837,267.3104,295.4841,270.3,286.1" style="stroke:#FFD700;stroke-width:2.0;"/></g><!--reverse link logger to env--><g id="link_logger_env"><path d="M227.8,64.15 C213.46,80.01 196.31,100.3 183.03,120 C157.97,157.19 135.22,204.18 122.27,232.76 " fill="none" id="logger-backto-env" style="stroke:#90EE90;stroke-width:2.0;"/><polygon fill="#90EE90" points="231.38,60.21,222.3616,64.1684,228.0124,63.9058,228.2749,69.5566,231.38,60.21" style="stroke:#90EE90;stroke-width:2.0;"/></g><!--reverse link logger to test_contractor--><g id="link_logger_test_contractor"><path d="M327.8,61.97 C382.23,82.8 455.32,110.78 501.56,128.48 " fill="none" id="logger-backto-test_contractor" style="stroke:#90EE90;stroke-width:2.0;"/><polygon fill="#90EE90" points="322.93,60.11,329.9085,67.0599,327.6004,61.8953,332.765,59.5873,322.93,60.11" style="stroke:#90EE90;stroke-width:2.0;"/></g><!--reverse link error to util--><g id="link_error_util"><path d="M283.66,178.43 C285.66,195.59 288.13,216.67 290.03,232.89 " fill="none" id="error-backto-util" style="stroke:#FFC0CB;stroke-width:2.0;"/><polygon fill="#FFC0CB" points="283.05,173.24,280.1039,182.6379,283.621,178.2073,288.0516,181.7244,283.05,173.24" style="stroke:#FFC0CB;stroke-width:2.0;"/></g><!--SRC=[ZLF1Ri8m3BtxAp8sYLCrQKV6E4mxRhST9rKXDMr4IAeabA5f_pudXRQa5OCBmVPxjjypI-UF2bV0hJK7zWEClKkDdvKKMutEiIVuXUNZgMZkjbBNtF8TSnKlp47gacsuSWW0Tmz873ONHXdBNbWjzPQ2sXIOEwAIHdUv3rwYzfpIUozL5owDAYYcJ5bYJwHaMVdI8chAyRhEryRuBYkEFCGzkX3JtdBX1rE8oj2JUmppwQQBlvc2UhogVKYikSDyGsjXsfGVAIsKxE9hnSKMmABmN9SAsMpdgYnk_gLf_4Nu6NPkOpF67OilTZ_KPyGG8IUP8cYe6s77CgOCGSbaX12APE519BtOARYLF85JCABR9E67nems86SoSgPEI2WSISx64SsbXobFS3BhdOpWn5tYcFHxP8jkKbDqqrgYcs38-I2UFNxxnQ6IT2SfIJYEB1v7HFQtGWJfuQHOkfm8ec-gxkxeejqyk_W033fa-pfRNP5kL3esUbHogvO0NTyME7q6IT7jx46J__RhQnB31fdfiVhyM1A0m7OD3P3kSRqwzZWDEl5d_mC0]--></g></svg>