<?xml version="1.0" encoding="UTF-8" standalone="no"?><svg xmlns="http://www.w3.org/2000/svg" xmlns:xlink="http://www.w3.org/1999/xlink" contentScriptType="application/ecmascript" contentStyleType="text/css" height="343px" preserveAspectRatio="none" style="width:712px;height:343px;background:#FFFFFF;" version="1.1" viewBox="0 0 712 343" width="712px" zoomAndPan="magnify"><defs><filter height="300%" id="fybddnwt9zrfy" width="300%" x="-1" y="-1"><feGaussianBlur result="blurOut" stdDeviation="2.0"/><feColorMatrix in="blurOut" result="blurOut2" type="matrix" values="0 0 0 0 0 0 0 0 0 0 0 0 0 0 0 0 0 0 .4 0"/><feOffset dx="4.0" dy="4.0" in="blurOut2" result="blurOut3"/><feBlend in="SourceGraphic" in2="blurOut3" mode="normal"/></filter></defs><g><!--MD5=[ee1136c2fea667c858da6db18ea920f9]
entity node_error--><rect fill="#FFC0CB" filter="url(#fybddnwt9zrfy)" height="36.2969" style="stroke:#A80036;stroke-width:1.0;" width="132" x="273" y="103"/><text fill="#000000" font-family="sans-serif" font-size="14" lengthAdjust="spacing" textLength="112" x="283" y="125.9951">msh-node-error</text><!--MD5=[dc761494ee1b9b4244e1fb624f515d0f]
entity node_session--><rect fill="#FF00FF" filter="url(#fybddnwt9zrfy)" height="36.2969" style="stroke:#A80036;stroke-width:1.0;" width="148" x="552" y="7"/><text fill="#000000" font-family="sans-serif" font-size="14" lengthAdjust="spacing" textLength="128" x="562" y="29.9951">msh-node-session</text><!--MD5=[54df67121562196fffa2352ae78be17e]
entity node_util--><rect fill="#FFD700" filter="url(#fybddnwt9zrfy)" height="36.2969" style="stroke:#A80036;stroke-width:1.0;" width="118" x="287" y="199"/><text fill="#000000" font-family="sans-serif" font-size="14" lengthAdjust="spacing" textLength="98" x="297" y="221.9951">msh-node-util</text><!--MD5=[a937e882fe30e40f6612a11c0a4df80e]
entity node_log--><rect fill="#90EE90" filter="url(#fybddnwt9zrfy)" height="36.2969" style="stroke:#A80036;stroke-width:1.0;" width="118" x="399" y="7"/><text fill="#000000" font-family="sans-serif" font-size="14" lengthAdjust="spacing" textLength="98" x="409" y="29.9951">msh-node-log</text><!--MD5=[528e974334f1ea53c49b315589e37ed7]
entity node_app--><rect fill="#00FFFF" filter="url(#fybddnwt9zrfy)" height="36.2969" style="stroke:#A80036;stroke-width:1.0;" width="123" x="128.5" y="199"/><text fill="#000000" font-family="sans-serif" font-size="14" lengthAdjust="spacing" textLength="103" x="138.5" y="221.9951">msh-node-app</text><!--MD5=[b9c22c1389906d5c5d843de05ade5a78]
entity test_contractor--><rect fill="#D2691E" filter="url(#fybddnwt9zrfy)" height="36.2969" style="stroke:#A80036;stroke-width:1.0;" width="160" x="7" y="103"/><text fill="#000000" font-family="sans-serif" font-size="14" lengthAdjust="spacing" textLength="140" x="17" y="125.9951">msh-test-contractor</text><!--MD5=[5aad52933b20a115e99239acc3f6ddb1]
entity node_env--><rect fill="#1E90FF" filter="url(#fybddnwt9zrfy)" height="36.2969" style="stroke:#A80036;stroke-width:1.0;" width="122" x="511" y="199"/><text fill="#FFFFFF" font-family="sans-serif" font-size="14" lengthAdjust="spacing" textLength="102" x="521" y="221.9951">msh-node-env</text><!--MD5=[893e59ef80d0d7ffc68896a5e14db9fb]
entity base_frame--><rect fill="#D3D3D3" filter="url(#fybddnwt9zrfy)" height="36.2969" style="stroke:#A80036;stroke-width:1.0;" width="137" x="121.5" y="295"/><text fill="#000000" font-family="sans-serif" font-size="14" lengthAdjust="spacing" textLength="117" x="131.5" y="317.9951">msh-base-frame</text><!--MD5=[c251b62818238b6f79269adc5bf7d1e2]
entity cli--><rect fill="#000000" filter="url(#fybddnwt9zrfy)" height="36.2969" style="stroke:#A80036;stroke-width:1.0;" width="71" x="337.5" y="295"/><text fill="#FFFFFF" font-family="sans-serif" font-size="14" lengthAdjust="spacing" textLength="51" x="347.5" y="317.9951">msh-cli</text><!--MD5=[9408c6bf5129b5837c7d0a66c91047f1]
entity vision--><rect fill="#FFA500" filter="url(#fybddnwt9zrfy)" height="36.2969" style="stroke:#A80036;stroke-width:1.0;" width="96" x="497" y="295"/><text fill="#000000" font-family="sans-serif" font-size="14" lengthAdjust="spacing" textLength="76" x="507" y="317.9951">msh-vision</text><!--MD5=[8b8265dfffc2fdcf005ec848823c3abb]
reverse link node_app to vision--><path d="M256.81,235.69 C326.78,254.22 434.96,282.86 496.95,299.28 " fill="none" id="node_app-backto-vision" style="stroke:#00FFFF;stroke-width:2.0;"/><polygon fill="#00FFFF" points="251.84,234.37,259.5123,240.5455,256.6726,235.653,261.5651,232.8133,251.84,234.37" style="stroke:#00FFFF;stroke-width:2.0;"/><!--MD5=[0700c1bdae0325f7174be48b221851dd]
reverse link node_env to vision--><path d="M565.62,240.23 C560.81,256.95 554.33,279.53 549.92,294.87 " fill="none" id="node_env-backto-vision" style="stroke:#1E90FF;stroke-width:2.0;"/><polygon fill="#1E90FF" points="567.05,235.24,560.7107,242.7774,565.6632,240.0438,568.3968,244.9963,567.05,235.24" style="stroke:#1E90FF;stroke-width:2.0;"/><!--MD5=[421b48379afd5c15e1738fa5aa14cbcd]
reverse link node_util to vision--><path d="M386.77,237.26 C422.68,254.22 474.46,278.68 508.9,294.95 " fill="none" id="node_util-backto-vision" style="stroke:#FFD700;stroke-width:2.0;"/><polygon fill="#FFD700" points="382.04,235.02,388.4552,242.493,386.5569,237.1641,391.8858,235.2659,382.04,235.02" style="stroke:#FFD700;stroke-width:2.0;"/><!--MD5=[b798392f87e4a3b3b15584a68a1f559e]
reverse link node_log to vision--><path d="M494.59,45.7 C541.05,73.05 619.01,127.35 651,199 C657.52,213.61 658.26,220.74 651,235 C637.06,262.36 608.34,282.28 584.31,294.99 " fill="none" id="node_log-backto-vision" style="stroke:#90EE90;stroke-width:2.0;"/><polygon fill="#90EE90" points="490.2,43.13,495.9618,51.1176,494.5199,45.6476,499.9899,44.2057,490.2,43.13" style="stroke:#90EE90;stroke-width:2.0;"/><!--MD5=[9a0f982d118d04df248efa98f9a8525d]
reverse link node_app to base_frame--><path d="M190,240.66 C190,257.34 190,279.66 190,294.87 " fill="none" id="node_app-backto-base_frame" style="stroke:#00FFFF;stroke-width:2.0;"/><polygon fill="#00FFFF" points="190,235.24,186,244.24,190,240.24,194,244.24,190,235.24" style="stroke:#00FFFF;stroke-width:2.0;"/><!--MD5=[d18bb5b8b3147562fd308e3971802be0]
reverse link node_util to base_frame--><path d="M313.34,237.68 C285.23,254.62 245.07,278.81 218.3,294.95 " fill="none" id="node_util-backto-base_frame" style="stroke:#FFD700;stroke-width:2.0;"/><polygon fill="#FFD700" points="317.75,235.02,307.9775,236.2444,313.4688,237.603,312.1103,243.0943,317.75,235.02" style="stroke:#FFD700;stroke-width:2.0;"/><!--MD5=[18d9e756ee8c530163794b388a18b37d]
reverse link test_contractor to base_frame--><path d="M87.93,144.3 C89.76,168.1 95.16,206.26 111,235 C124.41,259.32 147.97,280.79 165.88,294.84 " fill="none" id="test_contractor-backto-base_frame" style="stroke:#D2691E;stroke-width:2.0;"/><polygon fill="#D2691E" points="87.57,139.15,84.1969,148.4032,87.913,144.1382,92.178,147.8544,87.57,139.15" style="stroke:#D2691E;stroke-width:2.0;"/><!--MD5=[860c5d061bcab264f96d921baa155752]
reverse link node_log to node_app--><path d="M393.71,38.72 C350.87,49.84 295.42,69.58 256,103 C224.98,129.3 205.07,174.07 195.9,198.62 " fill="none" id="node_log-backto-node_app" style="stroke:#90EE90;stroke-width:2.0;"/><polygon fill="#90EE90" points="398.6,37.48,388.8882,35.8428,393.7569,38.7229,390.8768,43.5917,398.6,37.48" style="stroke:#90EE90;stroke-width:2.0;"/><!--MD5=[cfb0aa061ae35c8c3e81af622c39f0ee]
reverse link test_contractor to node_app--><path d="M109.95,142.94 C128.4,159.78 153.99,183.14 171.23,198.87 " fill="none" id="test_contractor-backto-node_app" style="stroke:#D2691E;stroke-width:2.0;"/><polygon fill="#D2691E" points="105.89,139.24,109.8501,148.2576,109.5865,142.6069,115.2372,142.3433,105.89,139.24" style="stroke:#D2691E;stroke-width:2.0;"/><!--MD5=[c1c883930f1a801d3a88bdc384345635]
reverse link node_app to cli--><path d="M227.9,237.47 C260.9,254.42 308.26,278.75 339.8,294.95 " fill="none" id="node_app-backto-cli" style="stroke:#00FFFF;stroke-width:2.0;"/><polygon fill="#00FFFF" points="223.14,235.02,229.3131,242.6942,227.5861,237.3074,232.9729,235.5804,223.14,235.02" style="stroke:#00FFFF;stroke-width:2.0;"/><!--MD5=[9c7fc7b123386b90749a7d5b5cdb2abd]
reverse link node_env to cli--><path d="M531.21,237.27 C495.19,254.28 443.19,278.84 408.77,295.1 " fill="none" id="node_env-backto-cli" style="stroke:#1E90FF;stroke-width:2.0;"/><polygon fill="#1E90FF" points="535.96,235.02,526.1142,235.2659,531.4431,237.1641,529.5448,242.493,535.96,235.02" style="stroke:#1E90FF;stroke-width:2.0;"/><!--MD5=[19bdcb596e9d55722f280c20dbb21454]
reverse link node_log to cli--><path d="M457.22,48.61 C455.21,87.83 448.1,170.46 423,235 C414.33,257.28 398.66,279.89 387.16,294.79 " fill="none" id="node_log-backto-cli" style="stroke:#90EE90;stroke-width:2.0;"/><polygon fill="#90EE90" points="457.48,43.14,453.0732,51.9479,457.2517,48.1348,461.0648,52.3133,457.48,43.14" style="stroke:#90EE90;stroke-width:2.0;"/><!--MD5=[5f03a69c9094c5faa593f453e1eaa1c5]
reverse link node_util to cli--><path d="M352.38,240.23 C357.19,256.95 363.67,279.53 368.08,294.87 " fill="none" id="node_util-backto-cli" style="stroke:#FFD700;stroke-width:2.0;"/><polygon fill="#FFD700" points="350.95,235.24,349.6032,244.9963,352.3368,240.0438,357.2893,242.7774,350.95,235.24" style="stroke:#FFD700;stroke-width:2.0;"/><!--MD5=[cf51d2c8ff4a078456be2523d4207e92]
reverse link node_log to node_env--><path d="M470.99,47.65 C493.9,85.83 541.02,164.37 561.79,198.98 " fill="none" id="node_log-backto-node_env" style="stroke:#90EE90;stroke-width:2.0;"/><polygon fill="#90EE90" points="468.32,43.2,469.5205,52.9754,470.8925,47.4875,476.3804,48.8595,468.32,43.2" style="stroke:#90EE90;stroke-width:2.0;"/><!--MD5=[0d0a0e7bd68d085df5ab3ad3aad2bfa8]
reverse link node_log to test_contractor--><path d="M393.64,42.31 C326.64,59.28 222.17,85.75 154.15,102.99 " fill="none" id="node_log-backto-test_contractor" style="stroke:#90EE90;stroke-width:2.0;"/><polygon fill="#90EE90" points="398.8,41,389.0927,39.3359,393.9535,42.2295,391.0599,47.0903,398.8,41" style="stroke:#90EE90;stroke-width:2.0;"/><!--MD5=[62bbe52dff9b8b54d85f2f2f62989f8b]
reverse link node_error to node_util--><path d="M340.66,144.23 C341.9,160.95 343.58,183.53 344.72,198.87 " fill="none" id="node_error-backto-node_util" style="stroke:#FFC0CB;stroke-width:2.0;"/><polygon fill="#FFC0CB" points="340.28,139.24,336.9597,148.5123,340.6515,144.2262,344.9376,147.918,340.28,139.24" style="stroke:#FFC0CB;stroke-width:2.0;"/><!--MD5=[a1f5410bf2ef0614bf417fa7c62bce62]
@startuml
<style>
arrow {
  LineThickness 2
}
</style>
'skinparam shadowing false


!$node_error_color = pink
!$node_session_color = Magenta
!$node_util_color = gold
!$node_log_color = lightgreen
!$node_app_color = cyan
!$test_contractor_color = chocolate
!$node_env_color = DodgerBlue
!$base_frame_color = lightgray
!$cli_color = black
!$vision_color = orange


rectangle "msh-node-error" as node_error #$node_error_color

rectangle "msh-node-session" as node_session #$node_session_color
rectangle "msh-node-util" as node_util #$node_util_color
rectangle "msh-node-log" as node_log #$node_log_color

rectangle "msh-node-app" as node_app #$node_app_color
rectangle "msh-test-contractor" as test_contractor #$test_contractor_color
rectangle "msh-node-env" as node_env #$node_env_color;text:white

rectangle "msh-base-frame" as base_frame #$base_frame_color
rectangle "msh-cli" as cli #$cli_color;text:white
rectangle "msh-vision" as vision #$vision_color

'- - - - - - - - - - - - - -

vision -up-> node_app #$node_app_color
vision -up-> node_env #$node_env_color
vision -up-> node_util #$node_util_color
vision -up-> node_log #$node_log_color


base_frame -up-> node_app #$node_app_color
base_frame -up-> node_util #$node_util_color
base_frame -up-> test_contractor #$test_contractor_color


node_app -up-> node_log #$node_log_color
node_app -up-> test_contractor #$test_contractor_color


cli -up-> node_app #$node_app_color
cli -up-> node_env #$node_env_color
cli -up-> node_log #$node_log_color
cli -up-> node_util #$node_util_color


node_env -up-> node_log #$node_log_color


test_contractor -up-> node_log #$node_log_color


node_util -up-> node_error #$node_error_color

@enduml

@startuml
<style>
arrow {
  LineThickness 2
}
</style>




rectangle "msh-node-error" as node_error #pink

rectangle "msh-node-session" as node_session #Magenta
rectangle "msh-node-util" as node_util #gold
rectangle "msh-node-log" as node_log #lightgreen

rectangle "msh-node-app" as node_app #cyan
rectangle "msh-test-contractor" as test_contractor #chocolate
rectangle "msh-node-env" as node_env #DodgerBlue;text:white

rectangle "msh-base-frame" as base_frame #lightgray
rectangle "msh-cli" as cli #black;text:white
rectangle "msh-vision" as vision #orange


vision -up-> node_app #cyan
vision -up-> node_env #DodgerBlue
vision -up-> node_util #gold
vision -up-> node_log #lightgreen


base_frame -up-> node_app #cyan
base_frame -up-> node_util #gold
base_frame -up-> test_contractor #chocolate


node_app -up-> node_log #lightgreen
node_app -up-> test_contractor #chocolate


cli -up-> node_app #cyan
cli -up-> node_env #DodgerBlue
cli -up-> node_log #lightgreen
cli -up-> node_util #gold


node_env -up-> node_log #lightgreen


test_contractor -up-> node_log #lightgreen


node_util -up-> node_error #pink

@enduml

PlantUML version 1.2021.11(Sat Oct 02 15:26:11 CEST 2021)
(GPL source distribution)
Java Runtime: OpenJDK Runtime Environment
JVM: OpenJDK 64-Bit Server VM
Default Encoding: UTF-8
Language: en
Country: US
--></g></svg>